<?xml version="1.0" standalone="no"?>
<!DOCTYPE svg PUBLIC "-//W3C//DTD SVG 1.1//EN" "http://www.w3.org/Graphics/SVG/1.1/DTD/svg11.dtd" >
<svg xmlns="http://www.w3.org/2000/svg">
<metadata>
This is a custom SVG webfont generated by Font Squirrel.
Designer    : FontSite.com
Foundry URL : http://www.fontsite.com
</metadata>
<defs>
<font id="webfontyFhIoErx" horiz-adv-x="536" >
<font-face units-per-em="1000" ascent="758" descent="-242" />
<missing-glyph horiz-adv-x="250" />
<glyph unicode="ft" horiz-adv-x="639" d="M66 0v400h-99v95h99q2 73 7.5 103.5t21.5 56.5q43 68 150 68q30 0 67 -9l-8 -103q-19 5 -34 5q-51 0 -68 -43q-8 -18 -8 -78h172v98l128 42v-140h113v-95h-113v-183q0 -66 12 -87q17 -31 62 -31q20 0 44 7l4 -100q-46 -10 -84 -10q-101 0 -141 64q-26 42 -26 130v210 h-171v-400h-128z" />
<glyph unicode="&#xfb00;" horiz-adv-x="623" d="M66 0v400h-99v95h99q2 73 7.5 103.5t21.5 56.5q43 68 150 68q30 0 67 -9l-8 -103q-19 5 -34 5q-51 0 -68 -43q-8 -18 -8 -78h171q2 73 7.5 103.5t21.5 56.5q43 68 149 68q30 0 67 -9l-8 -103q-19 5 -34 5q-61 0 -72 -58q-3 -18 -3 -63h111v-95h-111v-400h-128v400h-171 v-400h-128z" />
<glyph unicode="&#xfb01;" horiz-adv-x="558" d="M365 0v495h128v-495h-128zM363 585v121h132v-121h-132zM66 0v400h-99v95h99q2 73 7.5 103.5t21.5 56.5q43 68 150 68q30 0 67 -9l-8 -103q-19 5 -34 5q-51 0 -68 -43q-8 -18 -8 -78h112v-95h-112v-400h-128z" />
<glyph unicode="&#xfb02;" horiz-adv-x="562" d="M364 0v720h128v-720h-128zM66 0v400h-99v95h99q2 73 7.5 104t21.5 56q42 68 151 68q31 0 59 -9l-8 -103q-21 5 -32 5q-26 0 -45 -16t-23 -42q-3 -18 -3 -63h105v-95h-105v-400h-128z" />
<glyph unicode="&#xfb03;" horiz-adv-x="857" d="M662 585v121h132v-121h-132zM664 0v495h128v-495h-128zM66 0v400h-99v95h99q2 73 7.5 103.5t21.5 56.5q43 68 150 68q30 0 67 -9l-8 -103q-19 5 -34 5q-51 0 -68 -43q-8 -18 -8 -78h171q2 73 7.5 103.5t21.5 56.5q43 68 150 68q30 0 67 -9l-8 -103q-19 5 -34 5 q-51 0 -68 -43q-8 -18 -8 -78h112v-95h-112v-400h-128v400h-171v-400h-128z" />
<glyph unicode="&#xfb04;" horiz-adv-x="861" d="M664 0v720h128v-720h-128zM66 0v400h-99v95h99q2 73 7.5 103.5t21.5 56.5q43 68 150 68q30 0 67 -9l-8 -103q-19 5 -34 5q-51 0 -68 -43q-8 -18 -8 -78h171q2 73 7.5 104t21.5 56q42 68 151 68q31 0 59 -9l-8 -103q-21 5 -32 5q-26 0 -45 -16t-23 -42q-3 -18 -3 -63h105 v-95h-105v-400h-128v400h-171v-400h-128z" />
<glyph unicode=" "  horiz-adv-x="250" />
<glyph unicode="&#x09;" horiz-adv-x="250" />
<glyph unicode="&#xa0;" horiz-adv-x="250" />
<glyph unicode="!" horiz-adv-x="362" d="M152 192l-22 475h150l-21 -475h-107zM140 0v123h132v-123h-132z" />
<glyph unicode="&#x22;" horiz-adv-x="407" d="M65 452l-23 268h141l-24 -268h-94zM248 452l-23 268h140l-23 -268h-94z" />
<glyph unicode="#" d="M63 0l32 184h-90l16 90h90l23 133h-90l16 90h90l30 170h103l-30 -170h98l30 170h103l-30 -170h90l-16 -90h-90l-23 -133h90l-16 -90h-90l-32 -184h-103l32 184h-98l-33 -184h-102zM214 274h98l24 133h-99z" />
<glyph unicode="$" d="M49 21l13 121q88 -43 160 -43q8 0 17 1v185q-91 32 -124 54q-77 50 -77 145q0 80 54.5 128.5t152.5 56.5v86h52v-83q89 0 158 -22l-11 -112q-64 29 -147 31v-168q98 -33 133 -60q70 -53 70 -150q0 -99 -81 -155q-48 -32 -127 -41v-84h-53v81q-70 1 -105.5 6t-84.5 23z M245 417v152q-78 -17 -78 -76q0 -27 18 -44.5t60 -31.5zM292 102q78 19 78 82q0 31 -17 50t-61 36v-168z" />
<glyph unicode="%" horiz-adv-x="724" d="M142 -31l379 729h65l-378 -729h-66zM170 328q-126 0 -126 169q0 175 126 175t126 -178q0 -80 -32.5 -123t-93.5 -43zM170 383q49 0 49 112q0 122 -50 122q-48 0 -48 -120q0 -114 49 -114zM431 164q0 175 125 175q126 0 126 -177q0 -81 -32 -124t-93 -43q-62 0 -94 43.5 t-32 125.5zM508 164q0 -114 49 -114q48 0 48 112q0 122 -49 122q-48 0 -48 -120z" />
<glyph unicode="&#x26;" horiz-adv-x="696" d="M59 190q0 127 139 178q-89 80 -89 157q0 71 56.5 113t150.5 42q85 0 136.5 -42t51.5 -110q0 -73 -59 -126q-26 -22 -73 -49l127 -137q38 54 41 146h115q-4 -134 -84 -227l118 -135h-161l-47 55q-48 -37 -90 -52.5t-96 -15.5q-104 0 -170 57t-66 146zM298 423 q6 4 11.5 6.5t8.5 4.5q69 41 69 90q0 28 -21.5 45.5t-54.5 17.5t-55 -19t-22 -47q0 -21 13 -41t51 -57zM191 189q0 -44 33.5 -75t80.5 -31q56 0 114 46l-151 166q-77 -46 -77 -106z" />
<glyph unicode="'" horiz-adv-x="225" d="M65 452l-23 268h141l-24 -268h-94z" />
<glyph unicode="(" horiz-adv-x="355" d="M230 -32q25 -65 83 -171h-121q-83 134 -117 238t-34 223q0 120 33.5 222t117.5 240h121q-141 -244 -141 -460q0 -143 58 -292z" />
<glyph unicode=")" horiz-adv-x="356" d="M125 -32q58 149 58 292q0 216 -141 460h121q85 -140 118 -241t33 -222q0 -118 -34 -221.5t-117 -238.5h-121q61 115 83 171z" />
<glyph unicode="*" d="M195 350l-81 59l95 102l-136 32l31 95l129 -58l-13 140h98l-13 -140l128 54l30 -91l-136 -32l92 -102l-81 -59l-70 120z" />
<glyph unicode="+" d="M222 120v183h-187v87h187v183h92v-183h188v-87h-188v-183h-92z" />
<glyph unicode="," horiz-adv-x="267" d="M21 -108l60 240h136l-84 -240h-112z" />
<glyph unicode="-" horiz-adv-x="244" d="M0 197v107h244v-107h-244z" />
<glyph unicode="." horiz-adv-x="267" d="M65 0v131h136v-131h-136z" />
<glyph unicode="/" horiz-adv-x="436" d="M-35 -203l325 923h106l-324 -923h-107z" />
<glyph unicode="0" d="M92 77q-57 84 -57 249q0 160 47 244q28 51 76.5 79.5t108.5 28.5q61 0 109.5 -28t76.5 -80q47 -88 47 -247q0 -161 -57 -246q-29 -41 -75 -64.5t-101 -23.5q-54 0 -100 23.5t-75 64.5zM268 89q97 0 97 235q0 131 -24 192.5t-74 61.5q-97 0 -97 -251q0 -238 98 -238z" />
<glyph unicode="1" d="M243 0v520l-113 -96l-69 88l198 155h117v-667h-133z" />
<glyph unicode="2" d="M39 0v112q108 98 172 169q61 67 87 111.5t26 81.5q0 43 -29 69t-76 26q-74 0 -156 -56l-11 118q105 47 204 47q92 0 146 -45q65 -54 65 -144q0 -52 -23.5 -101.5t-81.5 -122.5q-63 -79 -152 -160l276 2v-107h-447z" />
<glyph unicode="3" d="M42 13l8 116q74 -35 150 -35q65 0 102 26.5t37 72.5q0 98 -163 98q-27 0 -49 -1v109q34 -2 41 -2q81 0 123 23q45 25 45 73q0 37 -31.5 58.5t-86.5 21.5q-82 0 -150 -35l-8 110q97 30 178 30q112 0 174 -45t62 -127q0 -61 -33.5 -103t-90.5 -53q44 -12 64 -26 q30 -20 48 -59.5t18 -83.5q0 -89 -71.5 -140.5t-196.5 -51.5q-88 0 -170 24z" />
<glyph unicode="4" d="M15 135v114l248 418h171v-430h86v-102h-86v-135h-133v135h-286zM138 237h166l2 278q0 27 6 46q-12 -30 -17 -39z" />
<glyph unicode="5" d="M68 10l3 122q69 -34 142 -34q62 0 99.5 30.5t37.5 80.5q0 54 -41 86t-111 32q-55 0 -120 -20l6 360h387v-104h-260l-3 -136q30 3 52 3q105 0 169 -59t64 -156q0 -107 -73 -168q-68 -58 -200 -58q-52 0 -133 17z" />
<glyph unicode="6" d="M278 -11q-120 0 -177.5 77.5t-57.5 239.5q0 372 275 372q64 0 146 -23l-17 -108q-57 27 -110 27q-77 0 -116.5 -49t-46.5 -153q45 66 131 66q88 0 141 -62t53 -164q0 -103 -59.5 -163t-161.5 -60zM182 218q0 -58 25.5 -93.5t67.5 -35.5q40 0 64.5 33t24.5 87q0 58 -25 92 t-68 34q-41 0 -65 -31.5t-24 -85.5z" />
<glyph unicode="7" d="M103 0l250 564h-302v103h434v-103l-234 -564h-148z" />
<glyph unicode="8" d="M35 182q0 65 32.5 108t93.5 59q-53 15 -83.5 55.5t-30.5 96.5q0 81 59.5 129t160.5 48q98 0 156.5 -43.5t58.5 -117.5q0 -118 -113 -157q63 -17 97.5 -62t34.5 -111q0 -92 -66 -149q-59 -49 -168 -49q-106 0 -169 52.5t-63 140.5zM211 436q24 -17 69 -36q2 1 5.5 3t6.5 4 q62 36 62 94q0 36 -24 59t-62 23q-39 0 -65 -22.5t-26 -56.5q0 -42 34 -68zM170 184q0 -43 29 -70.5t73 -27.5q43 0 68.5 25.5t25.5 67.5q0 43 -24.5 68.5t-86.5 46.5q-12 -6 -19 -9q-66 -35 -66 -101z" />
<glyph unicode="9" d="M71 11l16 109q61 -27 109 -27q94 0 135 78q22 43 30 129q-38 -69 -131 -69q-88 0 -141.5 61.5t-53.5 161.5q0 107 59.5 165.5t167.5 58.5q116 0 173 -77t57 -234q0 -184 -62 -278q-31 -47 -86 -73.5t-123 -26.5q-84 0 -150 22zM264 334q40 0 64 31t24 81q0 60 -25 96 t-67 36q-40 0 -65 -34t-25 -89q0 -54 26 -87.5t68 -33.5z" />
<glyph unicode=":" horiz-adv-x="267" d="M65 0v131h136v-131h-136zM65 364v131h136v-131h-136z" />
<glyph unicode=";" horiz-adv-x="267" d="M83 364v131h136v-131h-136zM21 -108l60 240h137l-85 -240h-112z" />
<glyph unicode="&#x3c;" horiz-adv-x="500" d="M33 287v106l433 220v-125l-299 -148l299 -148v-125z" />
<glyph unicode="=" d="M35 226v87h467v-87h-467zM35 380v87h467v-87h-467z" />
<glyph unicode="&#x3e;" horiz-adv-x="500" d="M33 66v126l299 148l-299 148v125l433 -220v-107z" />
<glyph unicode="?" horiz-adv-x="508" d="M204 190q1 69 14.5 102.5t60.5 84.5q61 68 61 115q0 37 -29.5 59t-79.5 22q-61 0 -145 -37l-11 110q99 32 193 32q88 0 143 -37q32 -23 51 -58.5t19 -75.5q0 -43 -18 -76t-76 -97q-43 -46 -54.5 -71.5t-13.5 -72.5h-115zM195 0v124h132v-124h-132z" />
<glyph unicode="@" horiz-adv-x="769" d="M155 75q-50 47 -78 114t-28 138q0 149 102.5 252t251.5 103q137 0 227.5 -84.5t90.5 -212.5q0 -92 -50 -162.5t-115 -70.5q-29 0 -50 15.5t-28 40.5q-20 -30 -53.5 -47t-71.5 -17q-61 0 -101.5 45t-40.5 113q0 81 52.5 141.5t123.5 60.5q69 0 98 -50l8 39l87 -1l-37 -192 q-7 -37 -7 -44q0 -32 23 -32q31 0 58 51t27 110q0 96 -66 157t-170 61q-116 0 -195 -80t-79 -197q0 -113 75 -191q70 -71 199 -71q95 0 184 31l20 -79q-91 -31 -206 -31q-155 0 -251 90zM311 305q0 -32 18.5 -52t47.5 -20q34 0 60 32t26 73q0 32 -17.5 52t-46.5 20 q-35 0 -61.5 -31.5t-26.5 -73.5z" />
<glyph unicode="A" horiz-adv-x="696" d="M9 0l260 667h150l267 -667h-147l-58 152h-276l-57 -152h-139zM246 261h194l-86 236q-7 19 -13 44l-5 -20q-4 -17 -10 -35z" />
<glyph unicode="B" horiz-adv-x="602" d="M81 0v667h214q115 0 167 -37q67 -47 67 -133q0 -123 -132 -148q74 -10 115 -53t41 -112q0 -102 -86 -151q-34 -20 -70 -26.5t-113 -6.5h-203zM216 397h64q114 0 114 82q0 85 -109 85h-69v-167zM216 102h66q66 0 101 25t35 72q0 48 -33 73.5t-95 25.5h-74v-196z" />
<glyph unicode="C" horiz-adv-x="589" d="M49 335q0 156 94 246q97 91 256 91q77 0 165 -29l-11 -114q-66 36 -141 36q-101 0 -160.5 -60.5t-59.5 -164.5q0 -103 62.5 -168t161.5 -65q71 0 146 28l5 -118q-83 -22 -156 -22q-171 0 -266.5 89.5t-95.5 250.5z" />
<glyph unicode="D" horiz-adv-x="697" d="M80 0v667h152q111 0 179.5 -15t117.5 -49q120 -84 120 -267q0 -190 -120 -275q-87 -61 -256 -61h-193zM215 102h27q69 0 108.5 10t71.5 35q84 66 84 186q0 65 -26 117t-74 80q-31 18 -70.5 25t-120.5 8v-461z" />
<glyph unicode="E" horiz-adv-x="537" d="M80 0v667h395v-109h-260v-162h238v-109h-238v-178h264v-109h-399z" />
<glyph unicode="F" horiz-adv-x="491" d="M80 0v667h370v-109h-235v-159h226v-109h-225v-290h-136z" />
<glyph unicode="G" horiz-adv-x="698" d="M153 73q-49 43 -76.5 113t-27.5 151q0 155 101.5 245t276.5 90q95 0 184 -27l-9 -118q-83 37 -177 37q-110 0 -171.5 -60.5t-61.5 -167.5q0 -106 61.5 -170t164.5 -64q40 0 83 14v162h-142v109h270v-357q-99 -35 -224 -35q-163 0 -252 78z" />
<glyph unicode="H" horiz-adv-x="695" d="M80 0v667h135v-271h265v271h135v-667h-135v287h-265v-287h-135z" />
<glyph unicode="I" horiz-adv-x="308" d="M87 0v667h135v-667h-135z" />
<glyph unicode="J" horiz-adv-x="378" d="M13 8l4 114q30 -10 57 -10q56 0 77 39q12 20 12 74v442h135v-455q0 -108 -39 -156q-49 -62 -151 -62q-43 0 -95 14z" />
<glyph unicode="K" horiz-adv-x="643" d="M81 0v667h135v-237q0 -26 -3 -53q23 33 35 46l209 244h162l-273 -308l288 -359h-174l-215 275q-21 27 -32 44q3 -23 3 -59v-260h-135z" />
<glyph unicode="L" horiz-adv-x="492" d="M80 0v667h135v-558h260v-109h-395z" />
<glyph unicode="M" horiz-adv-x="916" d="M80 0v667h213l121 -350q27 -76 43 -164q2 7 3.5 15.5t1.5 9.5q12 57 30 110l128 379h216v-667h-135v394q0 51 9 180h-4q-10 -40 -20 -69l-170 -505h-124l-144 418q-24 70 -46 156h-4q10 -98 10 -174v-400h-128z" />
<glyph unicode="N" horiz-adv-x="709" d="M80 0v667h159l223 -404q20 -36 40 -91q0 -2 4 -11.5t6 -15.5q-1 19 -4 36q-7 59 -7 128v358h128v-667h-163l-218 403q-30 56 -55 118q15 -108 15 -172v-349h-128z" />
<glyph unicode="O" horiz-adv-x="749" d="M49 332q0 159 82 252q41 46 105.5 72t137.5 26q152 0 239.5 -94t87.5 -258q0 -70 -21 -134t-59 -108q-86 -103 -247 -103q-150 0 -237.5 93.5t-87.5 253.5zM192 333q0 -109 50.5 -177t132.5 -68q88 0 137 75q46 71 46 167q0 111 -51 180t-133 69q-81 0 -131.5 -68.5 t-50.5 -177.5z" />
<glyph unicode="P" horiz-adv-x="549" d="M80 0v667h183q124 0 185 -43q81 -58 81 -163t-80 -166q-59 -44 -173 -44q-25 0 -61 2v-253h-135zM215 357q12 -1 27 -1q63 0 88 12q56 25 56 92q0 80 -74 99q-18 5 -97 6v-208z" />
<glyph unicode="Q" horiz-adv-x="749" d="M49 332q0 166 88 259q88 91 239 91q149 0 237 -94t88 -254q0 -127 -60 -221q-36 -56 -113 -96l159 -146h-165l-115 116q-19 -1 -44 -1q-143 0 -228.5 94t-85.5 252zM192 333q0 -109 50.5 -176.5t132.5 -67.5q89 0 136 71q47 73 47 173q0 110 -50.5 178t-132.5 68 q-81 0 -132 -68.5t-51 -177.5z" />
<glyph unicode="R" horiz-adv-x="596" d="M80 0v667h219q122 0 175 -39q65 -46 65 -137q0 -65 -35.5 -106.5t-99.5 -50.5q28 -11 44.5 -31t37.5 -71l96 -232h-150l-73 189q-20 53 -42 70.5t-69 17.5h-32v-277h-136zM215 380h60q121 0 121 96q0 87 -110 87h-71v-183z" />
<glyph unicode="S" horiz-adv-x="540" d="M70 16l12 120q78 -44 150 -44q54 0 85.5 25t31.5 68t-32 64q-20 14 -77 37q-85 33 -124 66q-59 49 -59 134q0 93 62 144.5t174 51.5q84 0 158 -26l-11 -110q-76 33 -139 33q-49 0 -77.5 -21.5t-28.5 -58.5q0 -43 41 -66q18 -10 91 -39q88 -35 126.5 -81.5t38.5 -118.5 q0 -97 -67 -153t-183 -56q-86 0 -172 31z" />
<glyph unicode="T" d="M199 0v558h-190v109h517v-109h-192v-558h-135z" />
<glyph unicode="U" horiz-adv-x="705" d="M137 64q-57 64 -57 200v403h135v-391q0 -55 7 -84t26 -53q38 -47 108 -47q82 0 118 67q12 23 16 47t4 75v386h131v-405q0 -142 -67.5 -209.5t-209.5 -67.5t-211 79z" />
<glyph unicode="V" horiz-adv-x="643" d="M241 0l-232 667h144l142 -429q20 -62 32 -107q21 78 34 117l138 419h134l-227 -667h-165z" />
<glyph unicode="W" horiz-adv-x="962" d="M188 0l-179 667h139l64 -255q55 -220 63 -291h4l18 114q1 4 5 25l9 41l13 64l68 302h180l66 -273q42 -176 55 -273h4q19 126 67 318l57 228h132l-176 -667h-171l-60 251q0 1 -25 114l-29 133q-4 18 -9 59h-4q-13 -86 -48 -246l-70 -311h-173z" />
<glyph unicode="X" horiz-adv-x="643" d="M9 0l220 350l-200 317h155l142 -236l143 236h143l-202 -317l223 -350h-159l-156 262l-158 -262h-151z" />
<glyph unicode="Y" horiz-adv-x="638" d="M253 0v267l-244 400h157l143 -248q9 -17 15 -32q3 9 15 30l146 250h144l-241 -397v-270h-135z" />
<glyph unicode="Z" horiz-adv-x="534" d="M33 0v115l276 394q20 28 26.5 36t16.5 15q-10 -2 -46 -2h-264v109h446v-125l-279 -400q-16 -22 -31 -36q21 3 47 3h274v-109h-466z" />
<glyph unicode="[" horiz-adv-x="366" d="M81 -203v923h213v-89h-96v-744h96v-90h-213z" />
<glyph unicode="\" horiz-adv-x="436" d="M364 -203l-324 923h106l325 -923h-107z" />
<glyph unicode="]" horiz-adv-x="366" d="M72 -113h96v744h-96v89h213v-923h-213v90z" />
<glyph unicode="^" horiz-adv-x="500" d="M6 336l161 335h166l162 -335h-133l-112 234l-112 -234h-132z" />
<glyph unicode="_" horiz-adv-x="500" d="M0 -47h500v-114h-500v114z" />
<glyph unicode="`" horiz-adv-x="500" d="M233 579l-136 136h132l80 -136h-76z" />
<glyph unicode="a" horiz-adv-x="538" d="M37 147q0 160 248 160q25 0 72 -4v5q0 105 -110 105q-83 0 -153 -54l-4 110q81 35 171 35q130 0 182 -72q18 -26 24.5 -63t6.5 -117v-72q0 -78 5 -180h-114l-2 73q-49 -81 -158 -81q-76 0 -122 42t-46 113zM164 143q0 -29 21.5 -46.5t55.5 -17.5t62 18.5t43 50.5 q13 29 13 77q-24 2 -35 2q-160 0 -160 -84z" />
<glyph unicode="b" horiz-adv-x="585" d="M64 0v720h128v-220q0 -45 -5 -92q50 96 160 96q94 0 147 -66.5t53 -183.5q0 -124 -54 -193t-151 -69q-109 0 -155 86l-3 -78h-120zM193 244q0 -68 31 -109.5t81 -41.5q48 0 78.5 42.5t30.5 110.5q0 71 -28.5 111t-77.5 40q-52 0 -83.5 -42.5t-31.5 -110.5z" />
<glyph unicode="c" horiz-adv-x="431" d="M37 250q0 112 64 176q73 73 188 73q44 0 107 -16l-10 -103q-43 16 -76 16q-63 0 -101.5 -40.5t-38.5 -107.5q0 -65 39 -105t103 -40q43 0 88 20l7 -108q-65 -19 -116 -19q-117 0 -185.5 68t-68.5 186z" />
<glyph unicode="d" horiz-adv-x="587" d="M244 -8q-98 0 -152.5 70t-54.5 194q0 112 56.5 180t148.5 68q103 0 154 -91q-5 45 -5 87v220h128v-576q0 -74 4 -144h-121l-2 84q-45 -92 -156 -92zM281 93q50 0 81 41.5t31 108.5q0 70 -32 112t-85 42q-49 0 -77.5 -39.5t-28.5 -107.5q0 -71 30.5 -114t80.5 -43z" />
<glyph unicode="e" horiz-adv-x="535" d="M36 249q0 119 65 189t174 70q104 0 163.5 -65.5t59.5 -179.5q0 -25 -3 -56h-333q5 -58 44 -91.5t102 -33.5q70 0 155 51l2 -111q-78 -35 -172 -35q-122 0 -189.5 69t-67.5 193zM160 296h216q-1 58 -28.5 90t-75.5 32q-46 0 -76 -32.5t-36 -89.5z" />
<glyph unicode="f" horiz-adv-x="324" d="M66 0v400h-99v95h99q2 73 7.5 103.5t21.5 56.5q43 68 150 68q30 0 67 -9l-8 -103q-19 5 -34 5q-51 0 -68 -43q-8 -18 -8 -78h112v-95h-112v-400h-128z" />
<glyph unicode="g" horiz-adv-x="579" d="M99 -65q81 -42 150 -42q99 0 133 72q9 18 12 41t6 93q-54 -99 -167 -99q-90 0 -143 68.5t-53 184.5q0 118 55 184.5t152 66.5q107 0 152 -90l2 80h122v-434q0 -76 -13 -121t-45 -79q-68 -71 -199 -71q-84 0 -174 35zM279 104q49 0 81.5 42t32.5 104q0 65 -32.5 106.5 t-82.5 41.5q-49 0 -78.5 -39t-29.5 -104q0 -68 30 -109.5t79 -41.5z" />
<glyph unicode="h" horiz-adv-x="581" d="M65 0v720h128v-295q55 79 156 79t142 -67q29 -47 29 -153v-284h-128v240q0 86 -13 111q-25 46 -75 46q-33 0 -59.5 -19.5t-39.5 -53.5q-12 -34 -12 -122v-202h-128z" />
<glyph unicode="i" horiz-adv-x="258" d="M65 0v495h128v-495h-128zM63 585v121h132v-121h-132z" />
<glyph unicode="j" horiz-adv-x="264" d="M70 585v121h132v-121h-132zM72 -12v507h128v-525q0 -176 -151 -176q-28 0 -62 5l5 94q7 -1 18 -1q36 0 53 31q9 15 9 65z" />
<glyph unicode="k" horiz-adv-x="527" d="M65 0v720h128v-335q0 -45 -3 -97q29 43 42 59l119 148h149l-184 -222l208 -273h-162l-128 181q-26 37 -44 71q3 -26 3 -65v-187h-128z" />
<glyph unicode="l" horiz-adv-x="257" d="M65 0v720h128v-720h-128z" />
<glyph unicode="m" horiz-adv-x="857" d="M69 0v374q0 65 -4 121h123l2 -75q54 83 155 83q96 0 138 -88q51 88 156 88q96 0 135 -72q23 -45 23 -144v-287h-128v240q0 79 -9 106q-18 50 -68 50q-54 0 -80 -58q-15 -34 -15 -109v-229h-128v253q0 79 -11 102q-20 41 -64 41q-48 0 -78 -50q-19 -32 -19 -98v-248h-128z " />
<glyph unicode="n" horiz-adv-x="585" d="M70 0v315q0 87 -5 180h120l4 -79q25 35 44 50q48 37 124 37q93 0 137 -64q31 -46 31 -160v-279h-128v249q0 78 -20.5 112.5t-67.5 34.5q-64 0 -94 -60q-17 -33 -17 -101v-235h-128z" />
<glyph unicode="o" horiz-adv-x="587" d="M37 249q0 116 71 187.5t186 71.5q116 0 186.5 -72.5t70.5 -193.5q0 -114 -71.5 -184.5t-186.5 -70.5t-185.5 72t-70.5 190zM170 249q0 -75 34 -121t90 -46q55 0 89.5 45.5t34.5 116.5q0 76 -34 122.5t-90 46.5q-55 0 -89.5 -46t-34.5 -118z" />
<glyph unicode="p" horiz-adv-x="589" d="M198 -6v-197h-128v554q0 54 -5 144h123l2 -78q59 86 159 86q94 0 149 -67.5t55 -183.5q0 -121 -55 -190.5t-151 -69.5q-105 0 -150 78q1 -31 1 -76zM198 243q0 -70 30 -110t82 -40q49 0 79.5 42t30.5 109q0 72 -28 112t-78 40q-54 0 -85 -41t-31 -112z" />
<glyph unicode="q" horiz-adv-x="584" d="M242 -8q-95 0 -150 70.5t-55 192.5q0 113 55.5 180.5t148.5 67.5q110 0 155 -87l3 79h121v-698h-128v196q0 55 4 89q-41 -90 -154 -90zM278 93q52 0 83.5 40.5t31.5 107.5q0 69 -32 112t-84 43q-50 0 -78.5 -40t-28.5 -109q0 -73 28.5 -113.5t79.5 -40.5z" />
<glyph unicode="r" horiz-adv-x="375" d="M69 0v346q0 99 -4 149h117l2 -126q35 130 139 130q20 0 38 -6v-119q-27 7 -44 7q-65 0 -98 -55q-22 -36 -22 -122v-204h-128z" />
<glyph unicode="s" horiz-adv-x="430" d="M43 13l6 108q65 -35 124 -35q40 0 65 15.5t25 41.5q0 22 -25 37q-15 9 -71 28q-67 23 -96.5 56t-29.5 86q0 70 54.5 111.5t147.5 41.5q59 0 129 -18l-9 -97q-55 20 -109 20q-38 0 -62 -14.5t-24 -37.5q0 -18 17 -29t74 -30q62 -21 82 -36q51 -37 51 -110 q0 -75 -54 -117.5t-150 -42.5q-60 0 -145 22z" />
<glyph unicode="t" horiz-adv-x="369" d="M94 190v210h-93v95h95v98l127 42v-140h114v-95h-114v-184q0 -65 12 -85q18 -32 62 -32q14 0 45 7l4 -100q-46 -10 -85 -10q-88 0 -127.5 46t-39.5 148z" />
<glyph unicode="u" horiz-adv-x="581" d="M90 62q-29 51 -29 154v279h128v-238q0 -80 14 -112q20 -46 74 -46q105 0 105 164v232h128v-302q0 -91 6 -193h-120l-4 76q-53 -84 -163 -84q-97 0 -139 70z" />
<glyph unicode="v" horiz-adv-x="531" d="M194 0l-185 495h140l83 -238q33 -94 40 -147q9 49 31 114l89 271h129l-184 -495h-143z" />
<glyph unicode="w" horiz-adv-x="854" d="M177 0l-168 495h135l58 -178q42 -130 54 -218q8 73 44 196l59 200h148l70 -223q33 -105 41 -170q7 62 38 172l64 221h124l-153 -495h-149l-62 192q-40 122 -49 201q-9 -58 -23 -108l-12 -43l-10 -39l-62 -203h-147z" />
<glyph unicode="x" horiz-adv-x="537" d="M9 0l172 256l-156 239h151l82 -133q17 -28 18 -31q6 13 21 38l76 126h135l-150 -239l169 -256h-154l-90 150l-9 14q-3 6 -12 21l-22 -38l-90 -147h-141z" />
<glyph unicode="y" horiz-adv-x="534" d="M51 -99q29 -11 52 -11q38 0 60 18.5t41 66.5l-195 520h142l102 -302l21 -66l24 82l96 286h130l-197 -529q-36 -94 -72 -129q-49 -46 -131 -46q-35 0 -71 10l-11 3z" />
<glyph unicode="z" horiz-adv-x="482" d="M33 0v98l206 248q21 25 56 57q-11 -1 -23 -1l-41 -1h-186v94h392v-99l-208 -250q-23 -28 -53 -54q47 6 116 6h154v-98h-413z" />
<glyph unicode="{" horiz-adv-x="366" d="M81 -59v182q0 44 -12.5 64.5t-42.5 26.5v89q29 8 42 29t13 61v183q0 95 58 125q23 13 46.5 15.5t107.5 3.5v-88h-19q-46 0 -59 -12q-11 -9 -14 -24t-3 -59v-153q0 -51 -12.5 -76t-48.5 -50q35 -22 48 -49t13 -77v-152q0 -66 14.5 -80.5t80.5 -13.5v-89q-83 1 -106.5 4 t-47.5 15q-58 31 -58 125z" />
<glyph unicode="|" horiz-adv-x="500" d="M187 -167v834h127v-834h-127z" />
<glyph unicode="}" horiz-adv-x="366" d="M73 -114q8 -1 19 -1q46 0 60 12q11 9 14 24t3 60v152q0 51 12.5 76.5t48.5 49.5q-35 22 -48 49t-13 77v152q0 66 -14.5 80.5t-81.5 14.5v88q86 -1 109 -3.5t46 -15.5q58 -31 58 -124v-183q0 -44 12 -64t42 -27v-89q-54 -13 -54 -90v-183q0 -93 -58 -125q-24 -12 -48 -15 t-107 -4v89z" />
<glyph unicode="~" horiz-adv-x="667" d="M160 561l-70 46q2 5 5 10.5t3 6.5q18 42 30.5 61t32.5 34q34 26 80 26q36 0 104 -26q63 -24 88 -24q23 0 38.5 11t32.5 41l72 -42q-37 -78 -72 -104q-40 -28 -86 -28q-24 0 -101 27q-64 23 -83 23q-25 0 -40 -12.5t-34 -49.5z" />
<glyph unicode="&#xa1;" horiz-adv-x="362" d="M88 372v123h132v-123h-132zM80 -171l21 475h107l22 -475h-150z" />
<glyph unicode="&#xa2;" d="M290 0v83q-105 16 -160 80t-55 172q0 104 55.5 167.5t159.5 79.5v83h50v-80q46 -3 95 -16l-10 -104q-43 17 -75 17h-10v-296h5q47 0 94 22l6 -108q-56 -14 -105 -17v-83h-50zM290 197v274q-82 -41 -82 -138q0 -96 82 -136z" />
<glyph unicode="&#xa3;" d="M50 0v101h85v215h-74v71h74q0 94 12 142q17 72 78 110.5t156 38.5q51 0 114 -16l-6 -109q-44 16 -89 16q-105 0 -125 -88q-7 -33 -7 -94h149v-71h-149v-215h223v-101h-441z" />
<glyph unicode="&#xa4;" d="M73 55l-55 54l82 83q-36 51 -36 111q0 59 37 110l-84 83l55 56l84 -83q54 35 113 35q58 0 110 -34l82 81l55 -55l-81 -82q37 -57 37 -112q0 -57 -36 -110l83 -82l-55 -56l-82 83q-55 -37 -115 -37q-55 0 -112 36zM268 191q46 0 78.5 32.5t32.5 78.5t-32.5 78.5 t-77.5 32.5q-47 0 -79.5 -32.5t-32.5 -78.5t32.5 -78.5t78.5 -32.5z" />
<glyph unicode="&#xa5;" d="M202 0v222h-187v71h173l-32 63h-141v71h102l-126 240h157l110 -249l5 -10q3 -6 9 -21q3 9 8 19q6 9 6 11l114 250h146l-127 -240h109v-71h-148l-32 -63h180v-71h-193v-222h-133z" />
<glyph unicode="&#xa6;" horiz-adv-x="500" d="M187 321v346h127v-346h-127zM187 153h127v-320h-127v320z" />
<glyph unicode="&#xa7;" d="M52 -62q88 -45 186 -45q52 0 82.5 21t30.5 57q0 43 -46 70q-24 14 -122 56q-140 60 -140 173q0 44 18.5 76.5t64.5 66.5q-43 35 -58.5 63t-15.5 68q0 85 63.5 137t166.5 52q74 0 173 -27l-12 -108q-90 31 -158 31q-52 0 -81 -21t-29 -58q0 -35 36 -62q19 -14 137 -63 q144 -60 144 -168q0 -62 -41 -108q-14 -17 -49 -37q74 -48 74 -131q0 -90 -73 -149q-60 -48 -158 -48q-88 0 -202 38zM215 204q26 -14 129 -57q46 42 46 87q0 33 -25 56.5t-88 50.5l-52 22l-15 7q-14 7 -24 11q-44 -44 -44 -85q0 -30 16.5 -51.5t56.5 -40.5z" />
<glyph unicode="&#xa8;" horiz-adv-x="500" d="M291 591v112h108v-112h-108zM102 591v112h109v-112h-109z" />
<glyph unicode="&#xa9;" horiz-adv-x="789" d="M49 333q0 146 102 247.5t250 101.5q139 0 239.5 -103t100.5 -245q0 -145 -101 -247t-244 -102t-245 102.5t-102 245.5zM117 333q0 -118 82 -202.5t197 -84.5q114 0 195.5 84.5t81.5 202.5t-80.5 203t-192.5 85q-119 0 -201 -83.5t-82 -204.5zM203 339q0 89 58 141t157 52 q45 0 104 -18l-8 -74q-42 23 -89 23q-59 0 -93 -33t-34 -89t36.5 -90.5t94.5 -34.5q41 0 91 17l3 -76q-53 -13 -98 -13q-105 0 -163.5 51.5t-58.5 143.5z" />
<glyph unicode="&#xaa;" horiz-adv-x="359" d="M145 370q-50 0 -80 26.5t-30 69.5q0 99 161 99q18 0 41 -2q-1 56 -64 56q-53 0 -102 -37l-2 78q53 22 112 22q84 0 118 -45q21 -29 21 -109v-43q0 -57 3 -110h-81l-1 34q-39 -39 -96 -39zM168 431q32 0 51 21t19 56h-18q-96 0 -96 -44q0 -15 12 -24t32 -9zM38 276v57h285 v-57h-285z" />
<glyph unicode="&#xab;" horiz-adv-x="537" d="M160 52l-114 198l111 195h121l-103 -195l106 -198h-121zM265 250l111 195h121l-103 -195l105 -198h-120z" />
<glyph unicode="&#xac;" horiz-adv-x="500" d="M33 148v118h433v-266h-127v148h-306z" />
<glyph unicode="&#xad;" horiz-adv-x="244" d="M0 197v107h244v-107h-244z" />
<glyph unicode="&#xae;" horiz-adv-x="789" d="M49 333q0 146 102 247.5t250 101.5q139 0 239.5 -103t100.5 -245q0 -145 -101 -247t-244 -102t-245 102.5t-102 245.5zM117 333q0 -118 82 -202.5t197 -84.5q114 0 195.5 84.5t81.5 202.5t-80.5 203t-192.5 85q-119 0 -201 -83.5t-82 -204.5zM260 147v382h136 q75 0 108 -22q41 -28 41 -81q0 -34 -18.5 -57.5t-51.5 -31.5q14 -10 20.5 -19.5t17.5 -33.5l60 -137h-100l-45 108q-12 29 -24 38t-38 9h-15v-155h-91zM350 369h32q68 0 68 49q0 43 -61 43h-39v-92z" />
<glyph unicode="&#xaf;" horiz-adv-x="500" d="M95 609v68h311v-68h-311z" />
<glyph unicode="&#xb0;" horiz-adv-x="377" d="M189 430q-65 0 -109.5 45t-44.5 109q0 61 45.5 105t108.5 44q64 0 108.5 -44t44.5 -107t-45 -107.5t-108 -44.5zM189 504q32 0 54.5 23t22.5 55t-23 54.5t-55 22.5q-31 0 -54 -22.5t-23 -53.5q0 -33 23 -56t55 -23z" />
<glyph unicode="&#xb1;" d="M35 73v87h467v-87h-467zM222 207v169h-187v87h187v170h92v-170h188v-87h-188v-169h-92z" />
<glyph unicode="&#xb2;" horiz-adv-x="247" d="M21 400v52q123 102 123 143q0 15 -11 24t-29 9q-32 0 -72 -26l-6 58q49 21 93 21t70 -22t26 -59q0 -62 -103 -148h111v-52h-202z" />
<glyph unicode="&#xb3;" horiz-adv-x="247" d="M21 407l4 56q36 -16 69 -16q55 0 55 35q0 34 -65 34h-26v53q11 -1 23 -1q67 0 67 34q0 28 -46 28q-35 0 -69 -17l-4 55q48 13 82 13q50 0 78 -19.5t28 -54.5q0 -42 -42 -62q44 -18 44 -68q0 -37 -32 -59t-88 -22q-40 0 -78 11z" />
<glyph unicode="&#xb4;" horiz-adv-x="500" d="M191 579l80 136h132l-136 -136h-76z" />
<glyph unicode="&#xb5;" horiz-adv-x="500" d="M153 51v-224h-127v653h127v-255q0 -47 6.5 -70.5t25.5 -42.5q28 -28 67 -28q42 0 68 34t26 111v251h127v-480h-127v58q-33 -68 -97 -68q-59 0 -96 61z" />
<glyph unicode="&#xb6;" d="M179 -203v484h-11q-66 0 -107 52.5t-41 136.5q0 117 70 166q45 31 129 31h277v-97h-40v-773h-100v773h-77v-773h-100z" />
<glyph unicode="&#xb7;" horiz-adv-x="267" d="M65 185v131h136v-131h-136z" />
<glyph unicode="&#xb8;" horiz-adv-x="500" d="M180 -74l46 74h51l-36 -55q23 4 38 4q35 0 57 -17t22 -45q0 -40 -34.5 -66t-86.5 -26q-44 0 -96 22l19 42q37 -19 67 -19q24 0 38 9.5t14 26.5q0 15 -12 24t-32 9q-14 0 -35 -5z" />
<glyph unicode="&#xb9;" horiz-adv-x="247" d="M107 400v203l-45 -35l-36 42l91 66h57v-276h-67z" />
<glyph unicode="&#xba;" horiz-adv-x="457" d="M228 365q-74 0 -120 44t-46 115t46 114.5t120 43.5q76 0 121.5 -44.5t45.5 -117.5q0 -69 -46.5 -112t-120.5 -43zM229 431q32 0 52.5 25t20.5 65q0 43 -20 69t-54 26q-32 0 -52.5 -25.5t-20.5 -66.5q0 -42 20.5 -67.5t53.5 -25.5zM72 276v57h313v-57h-313z" />
<glyph unicode="&#xbb;" horiz-adv-x="537" d="M256 52l105 198l-103 195h121l112 -195l-114 -198h-121zM38 52l104 198l-103 195h122l111 -195l-114 -198h-120z" />
<glyph unicode="&#xbc;" horiz-adv-x="892" d="M551 79v73l158 251h115v-254h54v-70h-54v-79h-93v79h-180zM641 149h92l1 158zM156 267v302l-67 -54l-50 59l130 95h80v-402h-93zM292 -31h-72l379 729h72z" />
<glyph unicode="&#xbd;" horiz-adv-x="892" d="M566 0v73q180 152 180 211q0 24 -16.5 38t-44.5 14q-47 0 -103 -37l-8 81q72 29 133 29q63 0 100.5 -31.5t37.5 -84.5q0 -57 -67 -135q-38 -45 -86 -87l165 1v-72h-291zM156 267v302l-67 -54l-50 59l130 95h80v-402h-93zM292 -31h-72l379 729h72z" />
<glyph unicode="&#xbe;" horiz-adv-x="892" d="M551 79v73l158 251h115v-254h54v-70h-54v-79h-93v79h-180zM641 149h92l1 158zM30 275l6 79q52 -23 99 -23q39 0 61 14.5t22 39.5q0 53 -99 53q-19 0 -35 -1v74q15 -1 31 -1q101 0 101 52q0 43 -70 43q-50 0 -98 -23l-6 75q64 19 117 19q73 0 113 -28t40 -79 q0 -64 -64 -92q68 -26 68 -99q0 -55 -46.5 -86.5t-127.5 -31.5q-57 0 -112 15zM293 -31h-72l379 729h72z" />
<glyph unicode="&#xbf;" horiz-adv-x="508" d="M181 372v123h132v-123h-132zM27 -11q0 42 18 75t76 98q43 46 54.5 71t13.5 72h116q-1 -69 -14.5 -102t-61.5 -85q-61 -65 -61 -114q0 -37 29.5 -59t79.5 -22q63 0 146 37l10 -110q-97 -32 -192 -32q-98 0 -156 46.5t-58 124.5z" />
<glyph unicode="&#xc0;" horiz-adv-x="696" d="M9 0l260 667h150l267 -667h-147l-58 152h-276l-57 -152h-139zM246 261h194l-86 236q-7 19 -13 44l-5 -20q-4 -17 -10 -35zM310 735l-127 130h130l80 -130h-83z" />
<glyph unicode="&#xc1;" horiz-adv-x="696" d="M9 0l260 667h150l267 -667h-147l-58 152h-276l-57 -152h-139zM246 261h194l-86 236q-7 19 -13 44l-5 -20q-4 -17 -10 -35zM303 735l80 130h130l-127 -130h-83z" />
<glyph unicode="&#xc2;" horiz-adv-x="696" d="M9 0l260 667h150l267 -667h-147l-58 152h-276l-57 -152h-139zM246 261h194l-86 236q-7 19 -13 44l-5 -20q-4 -17 -10 -35zM186 735l105 130h112l105 -130h-100l-61 76l-61 -76h-100z" />
<glyph unicode="&#xc3;" horiz-adv-x="696" d="M9 0l260 667h150l267 -667h-147l-58 152h-276l-57 -152h-139zM246 261h194l-86 236q-7 19 -13 44l-5 -20q-4 -17 -10 -35zM181 742q10 46 26 69q34 46 86 46q30 0 84 -24q34 -16 50 -16q17 0 27 9.5t17 31.5h56q-5 -53 -33 -83t-73 -30q-17 0 -28 3.5t-55 21.5 q-36 15 -52 15q-36 0 -49 -43h-56z" />
<glyph unicode="&#xc4;" horiz-adv-x="696" d="M9 0l260 667h150l267 -667h-147l-58 152h-276l-57 -152h-139zM246 261h194l-86 236q-7 19 -13 44l-5 -20q-4 -17 -10 -35zM391 741v115h115v-115h-115zM183 741v115h115v-115h-115z" />
<glyph unicode="&#xc5;" horiz-adv-x="696" d="M9 0l260 667h150l267 -667h-147l-58 152h-276l-57 -152h-139zM246 261h194l-86 236q-7 19 -13 44l-5 -20q-4 -17 -10 -35zM345 703q-43 0 -73 30.5t-30 73.5q0 42 30.5 72t73.5 30q41 0 71 -30.5t30 -72.5q0 -43 -30 -73t-72 -30zM345 763q17 0 29.5 12.5t12.5 30.5 q0 17 -12.5 30t-29.5 13q-18 0 -30.5 -12.5t-12.5 -30.5q0 -17 12.5 -30t30.5 -13z" />
<glyph unicode="&#xc6;" horiz-adv-x="900" d="M-5 0l365 667h475v-109h-260l15 -164h225v-109h-216l17 -176h226v-109h-352l-12 152h-257l-82 -152h-144zM278 261h190l-23 281v11l-1 9v11q-1 -3 -3 -7l-2 -3l-5 -9l-6 -12z" />
<glyph unicode="&#xc7;" horiz-adv-x="589" d="M303 -79l48 77q-144 15 -223 103t-79 234q0 156 94 246q97 91 256 91q77 0 165 -29l-11 -114q-66 36 -141 36q-101 0 -160.5 -60.5t-59.5 -164.5q0 -103 62.5 -168t161.5 -65q71 0 146 28l5 -118q-73 -21 -168 -22l-35 -55q21 5 40 5q38 0 60 -18t22 -49 q0 -41 -34.5 -67.5t-89.5 -26.5q-46 0 -98 22l19 46q35 -19 67 -19q52 0 52 38q0 33 -47 33q-15 0 -32 -5z" />
<glyph unicode="&#xc8;" horiz-adv-x="537" d="M80 0v667h395v-109h-260v-162h238v-109h-238v-178h264v-109h-399zM249 735l-127 130h130l80 -130h-83z" />
<glyph unicode="&#xc9;" horiz-adv-x="537" d="M80 0v667h395v-109h-260v-162h238v-109h-238v-178h264v-109h-399zM231 735l80 130h130l-127 -130h-83z" />
<glyph unicode="&#xca;" horiz-adv-x="537" d="M80 0v667h395v-109h-260v-162h238v-109h-238v-178h264v-109h-399zM120 735l105 130h112l105 -130h-100l-61 76l-61 -76h-100z" />
<glyph unicode="&#xcb;" horiz-adv-x="537" d="M80 0v667h395v-109h-260v-162h238v-109h-238v-178h264v-109h-399zM327 741v115h115v-115h-115zM119 741v115h115v-115h-115z" />
<glyph unicode="&#xcc;" horiz-adv-x="308" d="M86 0v667h135v-667h-135zM119 735l-127 130h130l80 -130h-83z" />
<glyph unicode="&#xcd;" horiz-adv-x="308" d="M87 0v667h135v-667h-135zM113 735l80 130h130l-127 -130h-83z" />
<glyph unicode="&#xce;" horiz-adv-x="308" d="M86 0v667h135v-667h-135zM6 735l95 130h112l95 -130h-96l-55 80l-54 -80h-97z" />
<glyph unicode="&#xcf;" horiz-adv-x="308" d="M87 0v667h135v-667h-135zM181 741v115h105v-115h-105zM23 741v115h105v-115h-105z" />
<glyph unicode="&#xd0;" horiz-adv-x="697" d="M80 0v297h-67v93h67v277h152q205 0 296 -64q120 -85 120 -268q0 -189 -120 -274q-84 -61 -255 -61h-193zM215 102h26q72 0 110.5 10t71.5 36q81 66 81 183q0 136 -98 199q-29 18 -68 25t-123 8v-173h140v-93h-140v-195z" />
<glyph unicode="&#xd1;" horiz-adv-x="709" d="M80 0v667h159l223 -404q20 -36 40 -91q0 -2 4 -11.5t6 -15.5q-1 19 -4 36q-7 59 -7 128v358h128v-667h-163l-218 403q-30 56 -55 118q15 -108 15 -172v-349h-128zM198 742q10 46 26 69q34 46 86 46q30 0 84 -24q34 -16 50 -16q17 0 27 9.5t17 31.5h56q-5 -53 -33 -83 t-73 -30q-17 0 -28 3.5t-55 21.5q-36 15 -52 15q-36 0 -49 -43h-56z" />
<glyph unicode="&#xd2;" horiz-adv-x="749" d="M49 332q0 159 82 252q41 46 105.5 72t137.5 26q152 0 239.5 -94t87.5 -258q0 -70 -21 -134t-59 -108q-86 -103 -247 -103q-150 0 -237.5 93.5t-87.5 253.5zM192 333q0 -109 50.5 -177t132.5 -68q88 0 137 75q46 71 46 167q0 111 -51 180t-133 69q-81 0 -131.5 -68.5 t-50.5 -177.5zM347 735l-127 130h130l80 -130h-83z" />
<glyph unicode="&#xd3;" horiz-adv-x="749" d="M49 332q0 159 82 252q41 46 105.5 72t137.5 26q152 0 239.5 -94t87.5 -258q0 -70 -21 -134t-59 -108q-86 -103 -247 -103q-150 0 -237.5 93.5t-87.5 253.5zM192 333q0 -109 50.5 -177t132.5 -68q88 0 137 75q46 71 46 167q0 111 -51 180t-133 69q-81 0 -131.5 -68.5 t-50.5 -177.5zM330 735l80 130h130l-127 -130h-83z" />
<glyph unicode="&#xd4;" horiz-adv-x="749" d="M49 332q0 159 82 252q41 46 105.5 72t137.5 26q152 0 239.5 -94t87.5 -258q0 -70 -21 -134t-59 -108q-86 -103 -247 -103q-150 0 -237.5 93.5t-87.5 253.5zM192 333q0 -109 50.5 -177t132.5 -68q88 0 137 75q46 71 46 167q0 111 -51 180t-133 69q-81 0 -131.5 -68.5 t-50.5 -177.5zM217 735l105 130h112l105 -130h-100l-61 76l-61 -76h-100z" />
<glyph unicode="&#xd5;" horiz-adv-x="749" d="M49 332q0 159 82 252q41 46 105.5 72t137.5 26q152 0 239.5 -94t87.5 -258q0 -70 -21 -134t-59 -108q-86 -103 -247 -103q-150 0 -237.5 93.5t-87.5 253.5zM192 333q0 -109 50.5 -177t132.5 -68q88 0 137 75q46 71 46 167q0 111 -51 180t-133 69q-81 0 -131.5 -68.5 t-50.5 -177.5zM212 742q10 46 26 69q34 46 86 46q30 0 84 -24q34 -16 50 -16q17 0 27 9.5t17 31.5h56q-5 -53 -33 -83t-73 -30q-17 0 -28 3.5t-55 21.5q-36 15 -52 15q-36 0 -49 -43h-56z" />
<glyph unicode="&#xd6;" horiz-adv-x="749" d="M49 332q0 159 82 252q41 46 105.5 72t137.5 26q152 0 239.5 -94t87.5 -258q0 -70 -21 -134t-59 -108q-86 -103 -247 -103q-150 0 -237.5 93.5t-87.5 253.5zM192 333q0 -109 50.5 -177t132.5 -68q88 0 137 75q46 71 46 167q0 111 -51 180t-133 69q-81 0 -131.5 -68.5 t-50.5 -177.5zM421 741v115h115v-115h-115zM213 741v115h115v-115h-115z" />
<glyph unicode="&#xd7;" d="M124 142l-61 61l144 144l-144 144l61 61l144 -144l144 144l61 -61l-144 -144l144 -144l-61 -61l-144 143z" />
<glyph unicode="&#xd8;" horiz-adv-x="749" d="M53 30l63 72q-67 92 -67 232q0 75 21.5 141t60.5 109q41 46 104.5 72t135.5 26q60 0 115.5 -16.5t89.5 -44.5l61 68l60 -53l-64 -72q68 -88 68 -232q0 -158 -88 -252.5t-236 -94.5q-127 0 -204 60l-58 -66zM212 207l274 323q-36 49 -113 49q-80 0 -130.5 -68t-50.5 -176 q0 -53 20 -128zM260 135q44 -47 117 -47q80 0 130.5 68.5t50.5 178.5q0 60 -24 123z" />
<glyph unicode="&#xd9;" horiz-adv-x="705" d="M137 64q-57 64 -57 200v403h135v-391q0 -55 7 -84t26 -53q38 -47 108 -47q82 0 118 67q12 23 16 47t4 75v386h131v-405q0 -142 -67.5 -209.5t-209.5 -67.5t-211 79zM325 735l-127 130h130l80 -130h-83z" />
<glyph unicode="&#xda;" horiz-adv-x="705" d="M137 64q-57 64 -57 200v403h135v-391q0 -55 7 -84t26 -53q38 -47 108 -47q82 0 118 67q12 23 16 47t4 75v386h131v-405q0 -142 -67.5 -209.5t-209.5 -67.5t-211 79zM304 735l80 130h130l-127 -130h-83z" />
<glyph unicode="&#xdb;" horiz-adv-x="705" d="M137 64q-57 64 -57 200v403h135v-391q0 -55 7 -84t26 -53q38 -47 108 -47q82 0 118 67q12 23 16 47t4 75v386h131v-405q0 -142 -67.5 -209.5t-209.5 -67.5t-211 79zM195 735l105 130h112l105 -130h-100l-61 76l-61 -76h-100z" />
<glyph unicode="&#xdc;" horiz-adv-x="705" d="M137 64q-57 64 -57 200v403h135v-391q0 -55 7 -84t26 -53q38 -47 108 -47q82 0 118 67q12 23 16 47t4 75v386h131v-405q0 -142 -67.5 -209.5t-209.5 -67.5t-211 79zM402 741v115h115v-115h-115zM194 741v115h115v-115h-115z" />
<glyph unicode="&#xdd;" horiz-adv-x="638" d="M253 0v267l-244 400h157l143 -248q9 -17 15 -32q3 9 15 30l146 250h144l-241 -397v-270h-135zM271 735l80 130h130l-127 -130h-83z" />
<glyph unicode="&#xde;" horiz-adv-x="548" d="M80 0v667h135v-94h48q124 0 185 -43q81 -56 81 -162q0 -50 -21 -94t-59 -72q-59 -44 -173 -44q-24 0 -61 1v-159h-135zM213 263q67 0 89 4q40 6 63 32.5t23 66.5q0 80 -75 99q-23 6 -100 6v-208z" />
<glyph unicode="&#xdf;" horiz-adv-x="584" d="M64 0v465q0 130 57 191q66 71 184 71q94 0 151.5 -50.5t57.5 -133.5q0 -62 -33 -104t-92 -55v-3q52 -10 85 -31q72 -48 72 -151q0 -94 -60 -150.5t-159 -56.5q-31 0 -82 10l2 101q33 -4 55 -4q52 0 83 31.5t31 84.5q0 75 -59 104q-25 13 -89 13v95h18q46 0 72.5 28 t26.5 76q0 47 -23.5 74t-63.5 27q-62 0 -89 -61q-17 -41 -17 -133v-438h-128z" />
<glyph unicode="&#xe0;" horiz-adv-x="538" d="M37 147q0 160 248 160q25 0 72 -4v5q0 105 -110 105q-83 0 -153 -54l-4 110q81 35 171 35q130 0 182 -72q18 -26 24.5 -63t6.5 -117v-72q0 -78 5 -180h-114l-2 73q-49 -81 -158 -81q-76 0 -122 42t-46 113zM164 143q0 -29 21.5 -46.5t55.5 -17.5t62 18.5t43 50.5 q13 29 13 77q-24 2 -35 2q-160 0 -160 -84zM246 579l-136 136h132l80 -136h-76z" />
<glyph unicode="&#xe1;" horiz-adv-x="538" d="M227 579l80 136h132l-136 -136h-76zM37 147q0 160 248 160q25 0 72 -4v5q0 105 -110 105q-83 0 -153 -54l-4 110q81 35 171 35q130 0 182 -72q18 -26 24.5 -63t6.5 -117v-72q0 -78 5 -180h-114l-2 73q-49 -81 -158 -81q-76 0 -122 42t-46 113zM164 143q0 -29 21.5 -46.5 t55.5 -17.5t62 18.5t43 50.5q13 29 13 77q-24 2 -35 2q-160 0 -160 -84z" />
<glyph unicode="&#xe2;" horiz-adv-x="538" d="M123 579l105 136h99l105 -136h-90l-64 83l-65 -83h-90zM37 147q0 160 248 160q25 0 72 -4v5q0 105 -110 105q-83 0 -153 -54l-4 110q81 35 171 35q130 0 182 -72q18 -26 24.5 -63t6.5 -117v-72q0 -78 5 -180h-114l-2 73q-49 -81 -158 -81q-76 0 -122 42t-46 113zM164 143 q0 -29 21.5 -46.5t55.5 -17.5t62 18.5t43 50.5q13 29 13 77q-24 2 -35 2q-160 0 -160 -84z" />
<glyph unicode="&#xe3;" horiz-adv-x="538" d="M124 591q6 42 18 62q27 50 78 50q23 0 71 -20q45 -18 60 -18q13 0 24.5 12t14.5 29h49q-3 -47 -32 -79t-69 -32q-24 0 -63 18q-42 19 -63 19q-30 0 -40 -41h-48zM37 147q0 160 248 160q25 0 72 -4v5q0 105 -110 105q-83 0 -153 -54l-4 110q81 35 171 35q130 0 182 -72 q18 -26 24.5 -63t6.5 -117v-72q0 -78 5 -180h-114l-2 73q-49 -81 -158 -81q-76 0 -122 42t-46 113zM164 143q0 -29 21.5 -46.5t55.5 -17.5t62 18.5t43 50.5q13 29 13 77q-24 2 -35 2q-160 0 -160 -84z" />
<glyph unicode="&#xe4;" horiz-adv-x="538" d="M318 591v112h108v-112h-108zM129 591v112h109v-112h-109zM37 147q0 160 248 160q25 0 72 -4v5q0 105 -110 105q-83 0 -153 -54l-4 110q81 35 171 35q130 0 182 -72q18 -26 24.5 -63t6.5 -117v-72q0 -78 5 -180h-114l-2 73q-49 -81 -158 -81q-76 0 -122 42t-46 113z M164 143q0 -29 21.5 -46.5t55.5 -17.5t62 18.5t43 50.5q13 29 13 77q-24 2 -35 2q-160 0 -160 -84z" />
<glyph unicode="&#xe5;" horiz-adv-x="538" d="M276 555q-41 0 -70 29.5t-29 70.5t29.5 69.5t71.5 28.5q39 0 68 -29.5t29 -69.5t-29.5 -69.5t-69.5 -29.5zM276 613q17 0 29 11.5t12 28.5t-12 29t-28 12q-17 0 -29 -11.5t-12 -28.5t11.5 -29t28.5 -12zM37 147q0 160 248 160q25 0 72 -4v5q0 105 -110 105 q-83 0 -153 -54l-4 110q81 35 171 35q130 0 182 -72q18 -26 24.5 -63t6.5 -117v-72q0 -78 5 -180h-114l-2 73q-49 -81 -158 -81q-76 0 -122 42t-46 113zM164 143q0 -29 21.5 -46.5t55.5 -17.5t62 18.5t43 50.5q13 29 13 77q-24 2 -35 2q-160 0 -160 -84z" />
<glyph unicode="&#xe6;" horiz-adv-x="856" d="M36 147q0 155 245 155q29 0 83 -3q-3 110 -121 110q-40 0 -71.5 -9.5t-79.5 -36.5l-4 100q87 40 177 40q132 0 167 -80q52 80 166 80t167 -71.5t54 -225.5h-331q5 -53 32 -80q39 -39 109 -39q82 0 145 43l4 -105q-80 -33 -167 -33q-73 0 -125 24.5t-72 68.5 q-19 -37 -50 -57q-56 -36 -137 -36q-86 0 -138.5 42.5t-52.5 112.5zM487 295h202q-1 45 -18 73q-26 47 -79 47q-56 0 -85 -53q-13 -24 -20 -67zM169 144q0 -29 22.5 -48.5t55.5 -19.5q29 0 57.5 16.5t42.5 41.5q19 34 19 87q-17 0 -35.5 1t-24.5 1q-64 0 -100.5 -21 t-36.5 -58z" />
<glyph unicode="&#xe7;" horiz-adv-x="431" d="M186 -74l47 75q-196 45 -196 249q0 112 64 176q73 73 188 73q44 0 107 -16l-10 -103q-43 16 -76 16q-63 0 -101.5 -40.5t-38.5 -107.5q0 -65 39 -105t103 -40q43 0 88 20l7 -108q-65 -19 -114 -19h-13l-34 -51q23 4 39 4q35 0 57 -17t22 -45q0 -40 -34.5 -66t-86.5 -26 q-45 0 -96 22l18 42q37 -19 68 -19q24 0 38 9.5t14 26.5q0 15 -12.5 24t-32.5 9q-14 0 -34 -5z" />
<glyph unicode="&#xe8;" horiz-adv-x="535" d="M36 249q0 119 65 189t174 70q104 0 163.5 -65.5t59.5 -179.5q0 -25 -3 -56h-333q5 -58 44 -91.5t102 -33.5q70 0 155 51l2 -111q-78 -35 -172 -35q-122 0 -189.5 69t-67.5 193zM160 296h216q-1 58 -28.5 90t-75.5 32q-46 0 -76 -32.5t-36 -89.5zM254 579l-136 136h132 l80 -136h-76z" />
<glyph unicode="&#xe9;" horiz-adv-x="535" d="M238 579l80 136h132l-136 -136h-76zM36 249q0 119 65 189t174 70q104 0 163.5 -65.5t59.5 -179.5q0 -25 -3 -56h-333q5 -58 44 -91.5t102 -33.5q70 0 155 51l2 -111q-78 -35 -172 -35q-122 0 -189.5 69t-67.5 193zM160 296h216q-1 58 -28.5 90t-75.5 32q-46 0 -76 -32.5 t-36 -89.5z" />
<glyph unicode="&#xea;" horiz-adv-x="535" d="M129 579l105 136h99l105 -136h-90l-64 83l-65 -83h-90zM36 249q0 119 65 189t174 70q104 0 163.5 -65.5t59.5 -179.5q0 -25 -3 -56h-333q5 -58 44 -91.5t102 -33.5q70 0 155 51l2 -111q-78 -35 -172 -35q-122 0 -189.5 69t-67.5 193zM160 296h216q-1 58 -28.5 90 t-75.5 32q-46 0 -76 -32.5t-36 -89.5z" />
<glyph unicode="&#xeb;" horiz-adv-x="535" d="M324 591v112h108v-112h-108zM135 591v112h109v-112h-109zM36 249q0 119 65 189t174 70q104 0 163.5 -65.5t59.5 -179.5q0 -25 -3 -56h-333q5 -58 44 -91.5t102 -33.5q70 0 155 51l2 -111q-78 -35 -172 -35q-122 0 -189.5 69t-67.5 193zM160 296h216q-1 58 -28.5 90 t-75.5 32q-46 0 -76 -32.5t-36 -89.5z" />
<glyph unicode="&#xec;" horiz-adv-x="258" d="M65 0v495h128v-495h-128zM98 579l-126 136h129l73 -136h-76z" />
<glyph unicode="&#xed;" horiz-adv-x="258" d="M65 0v495h128v-495h-128zM91 579l73 136h129l-126 -136h-76z" />
<glyph unicode="&#xee;" horiz-adv-x="258" d="M65 0v495h128v-495h-128zM-12 579l95 136h99l95 -136h-87l-57 83l-58 -83h-87z" />
<glyph unicode="&#xef;" horiz-adv-x="258" d="M66 0v495h128v-495h-128zM156 591v112h100v-112h-100zM3 591v112h100v-112h-100z" />
<glyph unicode="&#xf0;" horiz-adv-x="587" d="M37 250q0 111 67.5 183.5t170.5 72.5q38 0 62 -8t55 -33q-26 80 -95 140l-105 -64l-40 55l77 46q-30 12 -103 24l22 62q73 -7 162 -37l112 66l42 -53l-90 -53q80 -67 128.5 -173.5t48.5 -216.5q0 -134 -69 -203q-71 -71 -189 -71q-116 0 -186 72t-70 191zM200 134 q30 -51 95 -51t96 55q27 48 27 108q0 75 -34.5 121.5t-89.5 46.5q-54 0 -88.5 -46t-34.5 -117q0 -67 29 -117z" />
<glyph unicode="&#xf1;" horiz-adv-x="585" d="M144 591q6 42 18 62q27 50 78 50q23 0 71 -20q45 -18 60 -18q13 0 24.5 12t14.5 29h49q-3 -47 -32 -79t-69 -32q-24 0 -63 18q-42 19 -63 19q-30 0 -40 -41h-48zM70 0v315q0 87 -5 180h120l4 -79q25 35 44 50q48 37 124 37q93 0 137 -64q31 -46 31 -160v-279h-128v249 q0 78 -20.5 112.5t-67.5 34.5q-64 0 -94 -60q-17 -33 -17 -101v-235h-128z" />
<glyph unicode="&#xf2;" horiz-adv-x="587" d="M37 249q0 116 71 187.5t186 71.5q116 0 186.5 -72.5t70.5 -193.5q0 -114 -71.5 -184.5t-186.5 -70.5t-185.5 72t-70.5 190zM170 249q0 -75 34 -121t90 -46q55 0 89.5 45.5t34.5 116.5q0 76 -34 122.5t-90 46.5q-55 0 -89.5 -46t-34.5 -118zM271 579l-136 136h132l80 -136 h-76z" />
<glyph unicode="&#xf3;" horiz-adv-x="587" d="M251 579l80 136h132l-136 -136h-76zM37 249q0 116 71 187.5t186 71.5q116 0 186.5 -72.5t70.5 -193.5q0 -114 -71.5 -184.5t-186.5 -70.5t-185.5 72t-70.5 190zM170 249q0 -75 34 -121t90 -46q55 0 89.5 45.5t34.5 116.5q0 76 -34 122.5t-90 46.5q-55 0 -89.5 -46 t-34.5 -118z" />
<glyph unicode="&#xf4;" horiz-adv-x="587" d="M146 579l105 136h99l105 -136h-90l-64 83l-65 -83h-90zM37 249q0 116 71 187.5t186 71.5q116 0 186.5 -72.5t70.5 -193.5q0 -114 -71.5 -184.5t-186.5 -70.5t-185.5 72t-70.5 190zM170 249q0 -75 34 -121t90 -46q55 0 89.5 45.5t34.5 116.5q0 76 -34 122.5t-90 46.5 q-55 0 -89.5 -46t-34.5 -118z" />
<glyph unicode="&#xf5;" horiz-adv-x="587" d="M147 591q6 42 18 62q27 50 78 50q23 0 71 -20q45 -18 60 -18q13 0 24.5 12t14.5 29h49q-3 -47 -32 -79t-69 -32q-24 0 -63 18q-42 19 -63 19q-30 0 -40 -41h-48zM37 249q0 116 71 187.5t186 71.5q116 0 186.5 -72.5t70.5 -193.5q0 -114 -71.5 -184.5t-186.5 -70.5 t-185.5 72t-70.5 190zM170 249q0 -75 34 -121t90 -46q55 0 89.5 45.5t34.5 116.5q0 76 -34 122.5t-90 46.5q-55 0 -89.5 -46t-34.5 -118z" />
<glyph unicode="&#xf6;" horiz-adv-x="587" d="M338 591v112h108v-112h-108zM149 591v112h109v-112h-109zM37 249q0 116 71 187.5t186 71.5q116 0 186.5 -72.5t70.5 -193.5q0 -114 -71.5 -184.5t-186.5 -70.5t-185.5 72t-70.5 190zM170 249q0 -75 34 -121t90 -46q55 0 89.5 45.5t34.5 116.5q0 76 -34 122.5t-90 46.5 q-55 0 -89.5 -46t-34.5 -118z" />
<glyph unicode="&#xf7;" d="M35 303v87h467v-87h-467zM212 465v107h112v-107h-112zM212 122v107h112v-107h-112z" />
<glyph unicode="&#xf8;" horiz-adv-x="587" d="M35 21l55 59q-53 70 -53 169q0 117 71 188t187 71q82 0 151 -44l52 56l55 -47l-55 -58q53 -69 53 -170q0 -116 -70.5 -187t-186.5 -71q-88 0 -151 44l-53 -57zM182 173l185 213q-34 27 -72 27q-55 0 -90 -45.5t-35 -118.5q0 -35 12 -76zM221 110q35 -28 72 -28 q57 0 91 45.5t34 121.5q0 33 -12 73z" />
<glyph unicode="&#xf9;" horiz-adv-x="581" d="M90 62q-29 51 -29 154v279h128v-238q0 -80 14 -112q20 -46 74 -46q105 0 105 164v232h128v-302q0 -91 6 -193h-120l-4 76q-53 -84 -163 -84q-97 0 -139 70zM261 579l-136 136h132l80 -136h-76z" />
<glyph unicode="&#xfa;" horiz-adv-x="581" d="M245 579l80 136h132l-136 -136h-76zM90 62q-29 51 -29 154v279h128v-238q0 -80 14 -112q20 -46 74 -46q105 0 105 164v232h128v-302q0 -91 6 -193h-120l-4 76q-53 -84 -163 -84q-97 0 -139 70z" />
<glyph unicode="&#xfb;" horiz-adv-x="581" d="M134 579l105 136h99l105 -136h-90l-64 83l-65 -83h-90zM90 62q-29 51 -29 154v279h128v-238q0 -80 14 -112q20 -46 74 -46q105 0 105 164v232h128v-302q0 -91 6 -193h-120l-4 76q-53 -84 -163 -84q-97 0 -139 70z" />
<glyph unicode="&#xfc;" horiz-adv-x="581" d="M329 591v112h108v-112h-108zM140 591v112h109v-112h-109zM90 62q-29 51 -29 154v279h128v-238q0 -80 14 -112q20 -46 74 -46q105 0 105 164v232h128v-302q0 -91 6 -193h-120l-4 76q-53 -84 -163 -84q-97 0 -139 70z" />
<glyph unicode="&#xfd;" horiz-adv-x="534" d="M224 579l80 136h132l-136 -136h-76zM51 -99q29 -11 52 -11q38 0 60 18.5t41 66.5l-195 520h142l102 -302l21 -66l24 82l96 286h130l-197 -529q-36 -94 -72 -129q-49 -46 -131 -46q-35 0 -71 10l-11 3z" />
<glyph unicode="&#xfe;" horiz-adv-x="590" d="M199 -6v-197h-129v923h129v-211q0 -44 -8 -92q61 87 160 87q93 0 148 -68t55 -184q0 -121 -55 -190.5t-151 -69.5q-105 0 -150 78q1 -30 1 -76zM199 244q0 -70 30 -110.5t82 -40.5q49 0 79.5 42.5t30.5 109.5q0 73 -28 113t-79 40q-53 0 -84 -41.5t-31 -112.5z" />
<glyph unicode="&#xff;" horiz-adv-x="534" d="M307 591v112h108v-112h-108zM118 591v112h109v-112h-109zM51 -99q29 -11 52 -11q38 0 60 18.5t41 66.5l-195 520h142l102 -302l21 -66l24 82l96 286h130l-197 -529q-36 -94 -72 -129q-49 -46 -131 -46q-35 0 -71 10l-11 3z" />
<glyph unicode="&#x131;" horiz-adv-x="258" d="M65 0v495h128v-495h-128z" />
<glyph unicode="&#x141;" horiz-adv-x="492" d="M80 0v234l-67 -43v107l67 43v326h135v-269l139 89v-107l-139 -89v-182h260v-109h-395z" />
<glyph unicode="&#x142;" horiz-adv-x="277" d="M75 0v297l-67 -43v100l67 43v323h128v-270l66 42v-100l-66 -42v-350h-128z" />
<glyph unicode="&#x152;" horiz-adv-x="917" d="M147 81q-98 87 -98 255q0 101 38.5 176t110.5 115q80 43 219 43q40 0 84 -1q74 -2 167 -2h186v-109h-249v-161h228v-109h-228v-179h254v-109h-298l-139 -1q-98 -1 -161.5 18.5t-113.5 63.5zM298 132q51 -28 133 -28q22 0 39 2v453q-32 4 -66 4q-95 0 -155.5 -64 t-60.5 -164q0 -68 29 -121.5t81 -81.5z" />
<glyph unicode="&#x153;" horiz-adv-x="914" d="M37 248q0 118 71 189t189 71q63 0 104 -19t74 -65q68 84 176 84q144 0 196 -116q30 -65 31 -185h-332q4 -59 40.5 -92t98.5 -33q74 0 146 49l4 -107q-86 -37 -165 -37q-132 0 -189 83q-34 -44 -77.5 -63.5t-106.5 -19.5q-119 0 -189.5 71t-70.5 190zM546 296h200 q-4 47 -16 70q-26 51 -81 51q-45 0 -72.5 -32.5t-30.5 -88.5zM170 251q0 -76 33.5 -122.5t89.5 -46.5t90.5 45t34.5 118q0 75 -34 121.5t-89 46.5t-90 -45.5t-35 -116.5z" />
<glyph unicode="&#x160;" horiz-adv-x="540" d="M70 16l12 120q78 -44 150 -44q54 0 85.5 25t31.5 68t-32 64q-20 14 -77 37q-85 33 -124 66q-59 49 -59 134q0 93 62 144.5t174 51.5q84 0 158 -26l-11 -110q-76 33 -139 33q-49 0 -77.5 -21.5t-28.5 -58.5q0 -43 41 -66q18 -10 91 -39q88 -35 126.5 -81.5t38.5 -118.5 q0 -97 -67 -153t-183 -56q-86 0 -172 31zM222 735l-105 130h100l61 -76l61 76h100l-105 -130h-112z" />
<glyph unicode="&#x161;" horiz-adv-x="430" d="M177 579l-105 136h90l65 -83l64 83h90l-105 -136h-99zM43 13l6 108q65 -35 124 -35q40 0 65 15.5t25 41.5q0 22 -25 37q-15 9 -71 28q-67 23 -96.5 56t-29.5 86q0 70 54.5 111.5t147.5 41.5q59 0 129 -18l-9 -97q-55 20 -109 20q-38 0 -62 -14.5t-24 -37.5q0 -18 17 -29 t74 -30q62 -21 82 -36q51 -37 51 -110q0 -75 -54 -117.5t-150 -42.5q-60 0 -145 22z" />
<glyph unicode="&#x178;" horiz-adv-x="638" d="M253 0v267l-244 400h157l143 -248q9 -17 15 -32q3 9 15 30l146 250h144l-241 -397v-270h-135zM365 741v115h115v-115h-115zM157 741v115h115v-115h-115z" />
<glyph unicode="&#x17d;" horiz-adv-x="534" d="M33 0v115l276 394q20 28 26.5 36t16.5 15q-10 -2 -46 -2h-264v109h446v-125l-279 -400q-16 -22 -31 -36q21 3 47 3h274v-109h-466zM217 735l-105 130h100l61 -76l61 76h100l-105 -130h-112z" />
<glyph unicode="&#x17e;" horiz-adv-x="482" d="M196 579l-105 136h90l65 -83l64 83h90l-105 -136h-99zM33 0v98l206 248q21 25 56 57q-11 -1 -23 -1l-41 -1h-186v94h392v-99l-208 -250q-23 -28 -53 -54q47 6 116 6h154v-98h-413z" />
<glyph unicode="&#x192;" d="M21 -36q29 -4 43 -4q48 0 64 38q7 15 18 71l65 321h-107l12 71h109l22 110q18 93 61 130q50 44 132 44q37 0 81 -10l-17 -100q-30 5 -47 5q-48 0 -65 -31q-12 -23 -21 -76l-13 -72h116l-12 -71h-118l-63 -321q-13 -65 -25.5 -99t-33.5 -57q-49 -53 -139 -53q-39 0 -81 10 z" />
<glyph unicode="&#x2c6;" horiz-adv-x="500" d="M98 579l105 136h99l105 -136h-90l-64 83l-65 -83h-90z" />
<glyph unicode="&#x2c7;" horiz-adv-x="500" d="M203 579l-105 136h90l65 -83l64 83h90l-105 -136h-99z" />
<glyph unicode="&#x2d8;" horiz-adv-x="500" d="M250 574q-61 0 -99 37.5t-43 103.5h65q6 -29 17 -43q10 -13 27 -22t33 -9q37 0 61 31q11 15 16 43h65q-5 -47 -23 -76q-40 -65 -119 -65z" />
<glyph unicode="&#x2d9;" horiz-adv-x="500" d="M196 591v112h108v-112h-108z" />
<glyph unicode="&#x2da;" horiz-adv-x="500" d="M250 555q-41 0 -70 29.5t-29 70.5t29.5 69.5t71.5 28.5q39 0 68 -29.5t29 -69.5t-29.5 -69.5t-69.5 -29.5zM250 613q17 0 29 11.5t12 28.5t-12 29t-28 12q-17 0 -29 -11.5t-12 -28.5t11.5 -29t28.5 -12z" />
<glyph unicode="&#x2db;" horiz-adv-x="500" d="M286 -104q0 55 81 104h64q-35 -27 -49.5 -46.5t-14.5 -41.5q0 -18 12 -29t31 -11q17 0 37 10v-47q-30 -17 -69 -17q-40 0 -66 22t-26 56z" />
<glyph unicode="&#x2dc;" horiz-adv-x="500" d="M93 591q6 42 18 62q27 50 78 50q23 0 71 -20q45 -18 60 -18q13 0 24.5 12t14.5 29h49q-3 -47 -32 -79t-69 -32q-24 0 -63 18q-42 19 -63 19q-30 0 -40 -41h-48z" />
<glyph unicode="&#x2dd;" horiz-adv-x="500" d="M300 579l66 136h116l-113 -136h-69zM130 579l66 136h116l-112 -136h-70z" />
<glyph unicode="&#x3a9;" horiz-adv-x="667" d="M29 0v114h139q-59 37 -87 76q-52 69 -52 176q0 137 86.5 227t218.5 90t218 -90t86 -227q0 -88 -32 -146.5t-105 -105.5h137v-114h-268v101q56 31 87 72q52 71 52 179q0 94 -49 155.5t-125 61.5q-73 0 -123 -58q-53 -59 -53 -159q0 -89 34 -149.5t106 -101.5v-101h-270z " />
<glyph unicode="&#x3c0;" horiz-adv-x="662" d="M114 0v366h-77v114h587v-114h-75v-366h-127v366h-181v-366h-127z" />
<glyph unicode="&#x2000;" horiz-adv-x="454" />
<glyph unicode="&#x2001;" horiz-adv-x="909" />
<glyph unicode="&#x2002;" horiz-adv-x="454" />
<glyph unicode="&#x2003;" horiz-adv-x="909" />
<glyph unicode="&#x2004;" horiz-adv-x="303" />
<glyph unicode="&#x2005;" horiz-adv-x="227" />
<glyph unicode="&#x2006;" horiz-adv-x="151" />
<glyph unicode="&#x2007;" horiz-adv-x="151" />
<glyph unicode="&#x2008;" horiz-adv-x="113" />
<glyph unicode="&#x2009;" horiz-adv-x="181" />
<glyph unicode="&#x200a;" horiz-adv-x="50" />
<glyph unicode="&#x2010;" horiz-adv-x="244" d="M0 197v107h244v-107h-244z" />
<glyph unicode="&#x2011;" horiz-adv-x="244" d="M0 197v107h244v-107h-244z" />
<glyph unicode="&#x2013;" d="M35 207v87h465v-87h-465z" />
<glyph unicode="&#x2014;" horiz-adv-x="732" d="M0 207v87h732v-87h-732z" />
<glyph unicode="&#x2018;" horiz-adv-x="267" d="M33 481l85 239h111l-59 -239h-137z" />
<glyph unicode="&#x2019;" horiz-adv-x="267" d="M38 481l60 239h136l-84 -239h-112z" />
<glyph unicode="&#x201a;" horiz-adv-x="267" d="M38 -107l60 239h136l-84 -239h-112z" />
<glyph unicode="&#x201c;" horiz-adv-x="463" d="M33 481l85 239h111l-59 -239h-137zM229 481l85 239h112l-60 -239h-137z" />
<glyph unicode="&#x201d;" horiz-adv-x="463" d="M38 481l60 239h136l-84 -239h-112zM234 481l60 239h137l-85 -239h-112z" />
<glyph unicode="&#x201e;" horiz-adv-x="463" d="M33 -108l60 240h136l-84 -240h-112zM229 -108l60 240h137l-85 -240h-112z" />
<glyph unicode="&#x2020;" d="M209 -203v642h-163v100h163v181h118v-181h162v-100h-162v-642h-118z" />
<glyph unicode="&#x2021;" d="M46 5v93h167v354h-167v93h167v175h111v-175h165v-93h-165v-354h165v-93h-165v-208h-111v208h-167z" />
<glyph unicode="&#x2022;" horiz-adv-x="667" d="M335 200q-58 0 -98.5 40.5t-40.5 97.5q0 58 40.5 98.5t99.5 40.5q56 0 96.5 -41t40.5 -98t-40.5 -97.5t-97.5 -40.5z" />
<glyph unicode="&#x2024;" horiz-adv-x="268" d="M73 0v120h123v-120h-123z" />
<glyph unicode="&#x2025;" d="M73 0v120h123v-120h-123zM341 0v120h123v-120h-123z" />
<glyph unicode="&#x2026;" horiz-adv-x="800" d="M65 0v131h136v-131h-136zM332 0v131h136v-131h-136zM598 0v131h136v-131h-136z" />
<glyph unicode="&#x202f;" horiz-adv-x="181" />
<glyph unicode="&#x2030;" horiz-adv-x="1046" d="M142 -31l379 729h65l-378 -729h-66zM170 328q-126 0 -126 169q0 175 126 175t126 -178q0 -80 -32.5 -123t-93.5 -43zM170 383q49 0 49 112q0 122 -50 122q-48 0 -48 -120q0 -114 49 -114zM431 164q0 175 125 175q126 0 126 -177q0 -81 -32 -124t-93 -43q-62 0 -94 43.5 t-32 125.5zM508 164q0 -114 49 -114q48 0 48 112q0 122 -49 122q-48 0 -48 -120zM753 164q0 175 125 175q126 0 126 -177q0 -81 -32 -124t-93 -43q-62 0 -94 43.5t-32 125.5zM830 164q0 -114 49 -114q48 0 48 112q0 122 -49 122q-48 0 -48 -120z" />
<glyph unicode="&#x2032;" horiz-adv-x="225" d="M65 452l-23 268h141l-24 -268h-94z" />
<glyph unicode="&#x2033;" horiz-adv-x="407" d="M65 452l-23 268h141l-24 -268h-94zM248 452l-23 268h140l-23 -268h-94z" />
<glyph unicode="&#x2039;" horiz-adv-x="319" d="M160 52l-114 198l111 195h121l-103 -195l106 -198h-121z" />
<glyph unicode="&#x203a;" horiz-adv-x="319" d="M38 52l105 198l-103 195h121l112 -195l-114 -198h-121z" />
<glyph unicode="&#x2044;" horiz-adv-x="184" d="M-62 -31h-72l379 729h72z" />
<glyph unicode="&#x205f;" horiz-adv-x="227" />
<glyph unicode="&#x2070;" horiz-adv-x="247" d="M123 396q-104 0 -104 140q0 145 104 145q105 0 105 -147q0 -67 -27 -102.5t-78 -35.5zM124 445q37 0 37 90q0 97 -38 97q-37 0 -37 -96q0 -91 38 -91z" />
<glyph unicode="&#x2074;" horiz-adv-x="247" d="M132 400v54h-122v51l108 171h81v-172h37v-50h-37v-54h-67zM75 504h58l1 100z" />
<glyph unicode="&#x2075;" horiz-adv-x="247" d="M45 403l-12 2l2 60q33 -16 65 -16q26 0 40.5 10.5t14.5 29.5t-16.5 30.5t-44.5 11.5q-24 0 -56 -9l2 153h176v-51h-112l-1 -43q8 1 18 1q47 0 76 -25t29 -66q0 -45 -32 -70t-90 -25q-17 0 -59 7z" />
<glyph unicode="&#x2076;" horiz-adv-x="247" d="M127 396q-105 0 -105 132q0 153 123 153q30 0 68 -11l-9 -53q-29 13 -51 13q-53 0 -64 -62q24 17 50 17q40 0 64 -26t24 -69t-27 -68.5t-73 -25.5zM126 445q15 0 24 11.5t9 31.5q0 21 -9.5 33.5t-25.5 12.5q-15 0 -24 -11.5t-9 -30.5q0 -21 9.5 -34t25.5 -13z" />
<glyph unicode="&#x2077;" horiz-adv-x="247" d="M46 400l106 224h-126v51h196v-47l-102 -228h-74z" />
<glyph unicode="&#x2078;" horiz-adv-x="247" d="M125 396q-49 0 -77.5 22t-28.5 60q0 44 43 67q-38 24 -38 61q0 34 27 54.5t73 20.5q44 0 70.5 -19t26.5 -50q0 -40 -39 -63q47 -23 47 -69q0 -39 -28 -61.5t-76 -22.5zM129 570q28 15 28 36q0 12 -9.5 20t-23.5 8q-15 0 -25 -8t-10 -19q0 -13 8 -20t32 -17zM125 444 q16 0 26 9t10 23q0 16 -9 25t-33 17q-1 -1 -3 -1q-30 -13 -30 -38q0 -16 11 -25.5t28 -9.5z" />
<glyph unicode="&#x2079;" horiz-adv-x="247" d="M34 406l8 53q30 -13 51 -13q57 0 64 63q-18 -17 -49 -17q-40 0 -64.5 26t-24.5 68q0 45 27 70t75 25q104 0 104 -130q0 -156 -124 -156q-34 0 -67 11zM122 543q15 0 24 11t9 30q0 22 -9.5 35t-24.5 13t-24.5 -12.5t-9.5 -32.5t9.5 -32t25.5 -12z" />
<glyph unicode="&#x2080;" horiz-adv-x="247" d="M123 -4q-104 0 -104 139q0 145 104 145q105 0 105 -146q0 -67 -27 -102.5t-78 -35.5zM124 45q37 0 37 89q0 97 -38 97q-37 0 -37 -96q0 -90 38 -90z" />
<glyph unicode="&#x2081;" horiz-adv-x="247" d="M107 0v203l-45 -35l-36 42l91 66h57v-276h-67z" />
<glyph unicode="&#x2082;" horiz-adv-x="247" d="M21 0v51q123 102 123 143q0 15 -11 24t-29 9q-32 0 -72 -25l-6 58q49 20 93 20t70 -21.5t26 -58.5q0 -62 -103 -149l111 1v-52h-202z" />
<glyph unicode="&#x2083;" horiz-adv-x="247" d="M21 6l4 57q36 -16 69 -16q55 0 55 35q0 34 -65 34h-26v53q11 -1 23 -1q67 0 67 33q0 28 -46 28q-32 0 -69 -16l-4 54q43 13 82 13q50 0 78 -19t28 -54q0 -43 -42 -62q44 -18 44 -68q0 -37 -32 -59t-88 -22q-37 0 -78 10z" />
<glyph unicode="&#x2084;" horiz-adv-x="247" d="M132 0v54h-122v51l108 171h81v-172h37v-50h-37v-54h-67zM75 104h58l1 100z" />
<glyph unicode="&#x2085;" horiz-adv-x="247" d="M33 5l2 60q33 -16 65 -16q25 0 40 10.5t15 28.5q0 19 -16.5 30.5t-44.5 11.5q-24 0 -56 -9l2 154h176v-51h-112l-1 -43h18q47 0 76 -25t29 -66q0 -44 -32 -69t-90 -25q-17 0 -59 7z" />
<glyph unicode="&#x2086;" horiz-adv-x="247" d="M127 -4q-105 0 -105 131q0 153 123 153q29 0 68 -10l-9 -53q-29 12 -51 12q-53 0 -64 -62q24 17 50 17q40 0 64 -26t24 -69t-27 -68t-73 -25zM91 92q0 -21 9.5 -34t25.5 -13q15 0 24 11.5t9 31.5t-9.5 32.5t-25.5 12.5q-15 0 -24 -11t-9 -30z" />
<glyph unicode="&#x2087;" horiz-adv-x="247" d="M46 0l106 224h-126v51h196v-47l-102 -228h-74z" />
<glyph unicode="&#x2088;" horiz-adv-x="247" d="M19 77q0 45 43 68q-38 24 -38 60q0 34 27 54.5t73 20.5q44 0 70.5 -19t26.5 -50q0 -39 -39 -62q47 -23 47 -70q0 -38 -28 -60.5t-76 -22.5q-49 0 -77.5 22t-28.5 59zM129 170q28 14 28 35q0 12 -9.5 20t-23.5 8q-15 0 -25 -7.5t-10 -19.5t8 -19.5t32 -16.5zM86 78 q0 -15 11 -24.5t28 -9.5q16 0 26 9t10 23q0 15 -9.5 24.5t-32.5 16.5l-3 -1q-30 -14 -30 -38z" />
<glyph unicode="&#x2089;" horiz-adv-x="247" d="M34 6l8 53q31 -12 51 -12q56 0 64 62q-18 -17 -49 -17q-40 0 -64.5 26t-24.5 68q0 44 27 69t75 25q104 0 104 -129q0 -155 -124 -155q-36 0 -67 10zM122 143q15 0 24 11t9 29q0 22 -9.5 35t-24.5 13t-24.5 -12.5t-9.5 -31.5q0 -20 9.5 -32t25.5 -12z" />
<glyph unicode="&#x20ac;" horiz-adv-x="643" d="M35 251l22 69h49v14v19h-71l22 69h57q15 72 41 118q39 67 112 104.5t164 37.5q103 0 176 -44l-41 -132q-52 73 -135 73q-63 0 -107 -40t-65 -117h281l-22 -69h-268q-1 -10 -1 -20v-13h258l-22 -69h-227q18 -78 63.5 -120.5t110.5 -42.5q86 0 136 75v-153 q-63 -25 -139 -25q-128 0 -212.5 70.5t-104.5 195.5h-77z" />
<glyph unicode="&#x2113;" horiz-adv-x="500" d="M141 121q0 31 2 60l-6 -6l-9 -9q-12 -12 -19 -12t-13 8t-6 17q0 12 15 28q27 30 46 53q34 182 80 293q52 124 128 124q35 0 56 -25.5t21 -67.5q0 -86 -68 -191q-27 -43 -107 -126l-2 -10l-12 -60q-16 -82 -16 -115q0 -29 16 -29q20 0 42 48q9 21 22 21q18 0 18 -21 q0 -43 -35 -79.5t-76 -36.5q-77 0 -77 136zM276 356q102 118 102 218q0 40 -18 40t-32 -39q-27 -79 -52 -219z" />
<glyph unicode="&#x2117;" horiz-adv-x="789" d="M49 333q0 146 102 247.5t250 101.5q139 0 239.5 -103t100.5 -245q0 -145 -101 -247t-244 -102t-245 102.5t-102 245.5zM117 333q0 -118 82 -202.5t197 -84.5q114 0 195.5 84.5t81.5 202.5t-80.5 203t-192.5 85q-119 0 -201 -83.5t-82 -204.5zM270 147v382h136 q75 0 108 -22q41 -28 41 -81q0 -44 -39 -84t-110 -40h-45v-155h-91zM360 369h37q68 0 68 49q0 43 -61 43h-44v-92z" />
<glyph unicode="&#x2122;" horiz-adv-x="871" d="M365 287v382h136l73 -198q15 -43 22 -72q6 26 17 56l77 214h138v-382h-90v225q0 48 3 69l-106 -294h-81l-88 237l-18 52q3 -45 3 -61v-228h-86zM115 287v311h-114v71h320v-71h-116v-311h-90z" />
<glyph unicode="&#x2126;" horiz-adv-x="667" d="M29 0v114h139q-59 37 -87 76q-52 69 -52 176q0 137 86.5 227t218.5 90t218 -90t86 -227q0 -88 -32 -146.5t-105 -105.5h137v-114h-268v101q56 31 87 72q52 71 52 179q0 94 -49 155.5t-125 61.5q-73 0 -123 -58q-53 -59 -53 -159q0 -89 34 -149.5t106 -101.5v-101h-270z " />
<glyph unicode="&#x212e;" horiz-adv-x="874" d="M160 81q-112 97 -112 251q0 157 112 251q115 95 283 95t277 -100q106 -99 106 -264h-615v-184q87 -103 234 -103q144 0 229 103h100q-112 -143 -337 -143q-164 0 -277 94zM211 357h460v171q-82 109 -233 109q-150 0 -227 -109v-171z" />
<glyph unicode="&#x2153;" horiz-adv-x="892" d="M567 9l6 78q51 -22 99 -22q39 0 61 14.5t22 39.5q0 53 -99 53q-19 0 -35 -1v74q16 -1 31 -1q101 0 101 51q0 43 -70 43q-50 0 -98 -23l-6 75q64 19 117 19q73 0 113 -28t40 -78q0 -64 -64 -92q68 -26 68 -99q0 -55 -46.5 -86.5t-127.5 -31.5q-57 0 -112 15zM156 267v302 l-67 -54l-50 59l130 95h80v-402h-93zM292 -31h-72l379 729h72z" />
<glyph unicode="&#x2154;" horiz-adv-x="892" d="M567 9l6 78q51 -22 99 -22q39 0 61 14.5t22 39.5q0 53 -99 53q-19 0 -35 -1v74q16 -1 31 -1q101 0 101 51q0 43 -70 43q-50 0 -98 -23l-6 75q64 19 117 19q73 0 113 -28t40 -78q0 -64 -64 -92q68 -26 68 -99q0 -55 -46.5 -86.5t-127.5 -31.5q-57 0 -112 15zM28 267v73 q180 152 180 211q0 24 -16.5 38t-44.5 14q-47 0 -103 -37l-8 81q72 29 133 29q63 0 100.5 -31.5t37.5 -84.5q0 -57 -67 -135q-38 -45 -86 -87l165 1v-72h-291zM292 -31h-72l379 729h72z" />
<glyph unicode="&#x215b;" horiz-adv-x="892" d="M292 -31h-72l379 729h72zM156 267v302l-67 -54l-50 59l130 95h80v-402h-93zM563 112q0 35 18 62t49 37q-32 18 -45.5 38.5t-13.5 50.5q0 50 39 79.5t104 29.5q64 0 102 -27t38 -73q0 -60 -60 -91q38 -18 55 -42t17 -61q0 -57 -40.5 -89t-111.5 -32q-69 0 -110 32t-41 86z M662 302q0 -19 12.5 -31t47.5 -25q42 22 42 54q0 19 -14 31.5t-35 12.5q-23 0 -38 -12t-15 -30zM658 113q0 -22 16.5 -37t42.5 -15q25 0 39.5 13.5t14.5 36.5t-14 36.5t-50 25.5q-5 -2 -7 -3q-42 -20 -42 -57z" />
<glyph unicode="&#x215c;" horiz-adv-x="892" d="M293 -31h-72l379 729h72zM30 275l6 79q52 -23 99 -23q39 0 61 14.5t22 39.5q0 53 -99 53q-19 0 -35 -1v74q15 -1 31 -1q101 0 101 52q0 43 -70 43q-50 0 -98 -23l-6 75q64 19 117 19q73 0 113 -28t40 -79q0 -64 -64 -92q68 -26 68 -99q0 -55 -46.5 -86.5t-127.5 -31.5 q-57 0 -112 15zM564 112q0 35 18 62t49 37q-33 18 -46.5 38.5t-13.5 50.5q0 49 39.5 79t104.5 30q64 0 102 -27t38 -73q0 -60 -61 -91q39 -18 56 -42t17 -61q0 -57 -40.5 -89t-111.5 -32q-69 0 -110 32t-41 86zM662 302q0 -19 13 -31t48 -25q42 22 42 54q0 19 -14 31.5 t-36 12.5q-23 0 -38 -12t-15 -30zM659 113q0 -22 16.5 -37t42.5 -15q25 0 39.5 13.5t14.5 36.5q0 22 -14.5 36t-50.5 26q-3 -1 -7 -3q-41 -18 -41 -57z" />
<glyph unicode="&#x215d;" horiz-adv-x="892" d="M293 -31h-72l379 729h72zM47 273l2 83q47 -22 93 -22q37 0 59.5 16.5t22.5 44.5q0 29 -24.5 46.5t-65.5 17.5q-36 0 -81 -13l4 221h253v-71h-164l-2 -68l29 1q67 2 109 -35t42 -96q0 -65 -46.5 -101.5t-130.5 -36.5q-34 0 -100 13zM564 112q0 35 18 62t49 37 q-33 18 -46.5 38.5t-13.5 50.5q0 49 39.5 79t104.5 30q64 0 102 -27t38 -73q0 -60 -60 -91q38 -18 55 -42t17 -61q0 -57 -40.5 -89t-111.5 -32q-69 0 -110 32t-41 86zM662 302q0 -19 13 -31t48 -25q42 22 42 54q0 19 -14 31.5t-36 12.5q-23 0 -38 -12t-15 -30zM659 113 q0 -22 16.5 -37t42.5 -15q25 0 39.5 13.5t14.5 36.5t-14 36.5t-51 25.5q-1 0 -3 -1l-4 -2q-41 -19 -41 -57z" />
<glyph unicode="&#x215e;" horiz-adv-x="892" d="M66 267l156 330h-186v70h283v-66l-149 -334h-104zM221 -31l378 729h73l-379 -729h-72zM563 112q0 35 18.5 61.5t49.5 37.5q-33 18 -46.5 38.5t-13.5 50.5q0 49 39.5 79t104.5 30q64 0 102 -27t38 -73q0 -60 -61 -91q39 -18 56 -42t17 -61q0 -57 -40.5 -89t-112.5 -32 q-69 0 -110 32t-41 86zM662 302q0 -19 12.5 -31t47.5 -25q43 22 43 54q0 19 -14 31.5t-36 12.5q-23 0 -38 -12t-15 -30zM658 113q0 -23 17 -37.5t43 -14.5q25 0 39.5 13.5t14.5 36.5t-14 36.5t-51 25.5q-1 0 -3 -1l-4 -2q-42 -19 -42 -57z" />
<glyph unicode="&#x21e7;" horiz-adv-x="1090" d="M77 261l468 467l466 -467h-233v-261h-467v261h-234zM388 77h312v262h124l-279 279l-279 -279h123z" />
<glyph unicode="&#x2202;" horiz-adv-x="500" d="M16 220q0 90 59.5 151.5t147.5 61.5q75 0 123 -47q-28 71 -102.5 115.5t-180.5 53.5l16 110q97 -10 162 -35t117 -71q124 -109 124 -291q0 -126 -64 -201.5t-171 -75.5q-96 0 -163.5 67t-67.5 162zM145 216q0 -55 30 -92.5t73 -37.5q44 0 74 37t30 92q0 54 -29.5 89.5 t-73.5 35.5q-45 0 -74.5 -35.5t-29.5 -88.5z" />
<glyph unicode="&#x2206;" horiz-adv-x="667" d="M17 0l246 667h137l250 -667h-633zM198 118h268l-134 395z" />
<glyph unicode="&#x220f;" horiz-adv-x="731" d="M40 -124h83v764h-83v118h652v-118h-84v-764h84v-118h-290v118h79v764h-231v-764h79v-118h-289v118z" />
<glyph unicode="&#x2211;" horiz-adv-x="667" d="M21 -111l244 386l-244 352v131h598v-250h-114l-13 132h-328l250 -365l-250 -399h338l7 131h119v-249h-607v131z" />
<glyph unicode="&#x2212;" d="M35 303v87h467v-87h-467z" />
<glyph unicode="&#x221a;" horiz-adv-x="667" d="M152 0l-58 273h-94v118h198l20 -90q12 -55 14 -147h10q9 134 46 295l89 382h290v-118h-179l-168 -713h-168z" />
<glyph unicode="&#x221e;" horiz-adv-x="667" d="M180 177q-71 0 -117 46t-46 117q0 70 45.5 116t116.5 46q82 0 152 -79q68 79 156 79q71 0 117 -45.5t46 -116.5t-45.5 -117t-115.5 -46q-86 0 -152 81q-72 -81 -157 -81zM396 340q36 -56 74 -56q23 0 39 16t16 39t-16.5 39.5t-39.5 16.5q-36 0 -73 -55zM198 284 q37 0 73 56q-35 55 -74 55q-23 0 -39 -16t-16 -39t16.5 -39.5t39.5 -16.5z" />
<glyph unicode="&#x222b;" horiz-adv-x="500" d="M74 -119q36 -9 56 -9t34.5 9.5t18.5 25.5t4 97v484q0 124 11 164q13 50 56 78t105 28q37 0 91 -10l-23 -113q-35 9 -56 9q-52 0 -56 -56q-1 -4 -1 -141v-419q0 -99 -4 -133.5t-18 -59.5q-43 -77 -150 -77q-38 0 -91 10z" />
<glyph unicode="&#x2248;" horiz-adv-x="500" d="M77 347l-70 46q32 78 65 108t87 30q31 0 103 -27q64 -24 87 -24q24 0 39.5 11t32.5 42l72 -42q-36 -78 -72 -104q-40 -29 -86 -29q-27 0 -101 27q-65 24 -84 24q-25 0 -40 -12.5t-33 -49.5zM77 147l-70 45q32 78 65 108t86 30q34 0 104 -26q65 -24 88 -24t38.5 11 t32.5 41l72 -42q-37 -78 -72 -104q-40 -28 -86 -28q-26 0 -101 27q-64 23 -83 23q-26 0 -41 -12.5t-33 -48.5z" />
<glyph unicode="&#x2260;" d="M131 160l31 66h-127v87h167l31 67h-198v87h239l49 105l83 -39l-31 -66h127v-87h-167l-31 -67h198v-87h-239l-49 -105z" />
<glyph unicode="&#x2264;" horiz-adv-x="500" d="M33 353v106l433 207v-119l-299 -139l299 -138v-120zM33 3v118h433v-118h-433z" />
<glyph unicode="&#x2265;" horiz-adv-x="500" d="M33 150v120l299 139l-299 138v119l433 -207v-106zM33 3v118h433v-118h-433z" />
<glyph unicode="&#x2303;" horiz-adv-x="856" d="M194 278l-78 78l312 311l311 -311l-78 -78l-233 233z" />
<glyph unicode="&#x2318;" horiz-adv-x="842" d="M76 142q0 62 45 107.5t109 45.5h76v77h-76q-64 0 -109 45t-45 108t45 108t109 45q62 0 107.5 -45.5t45.5 -107.5v-77h76v77q0 63 45.5 108t108.5 45t107.5 -45t44.5 -108t-44.5 -108t-107.5 -45h-77v-77h77q63 0 107.5 -45t44.5 -108t-44.5 -108t-107.5 -45 q-65 0 -109.5 45t-44.5 108v77h-76v-77q0 -63 -44.5 -108t-108.5 -45q-65 0 -109.5 45t-44.5 108zM536 448h77q31 0 53.5 23t22.5 54t-22.5 54t-53.5 23q-32 0 -54.5 -22.5t-22.5 -54.5v-77zM230 448h76v77q0 32 -22.5 54.5t-53.5 22.5q-32 0 -54.5 -22.5t-22.5 -54.5 t22.5 -54.5t54.5 -22.5zM383 295h76v77h-76v-77zM536 142q0 -31 22.5 -54t54.5 -23q31 0 53.5 22.5t22.5 54.5t-22.5 54.5t-53.5 22.5h-77v-77zM153 142q0 -31 22.5 -54t54.5 -23q31 0 53.5 23t22.5 54v77h-76q-32 0 -54.5 -22.5t-22.5 -54.5z" />
<glyph unicode="&#x2325;" horiz-adv-x="923" d="M533 590v77h312v-77h-312zM578 0l-294 590h-207v77h268l293 -590h207v-77h-267z" />
<glyph unicode="&#x2460;" horiz-adv-x="820" d="M44 354q0 152 107 259t259 107t259 -107t107 -259t-107 -259t-259 -107t-259 107t-107 259zM385 141h79v427h-58l-92 -94l28 -52l43 53v-334z" />
<glyph unicode="&#x2461;" horiz-adv-x="820" d="M44 354q0 152 107 259t259 107t259 -107t107 -259t-107 -259t-259 -107t-259 107t-107 259zM301 141h222v60h-128q4 5 26 35.5t34 49.5q60 95 60 165q0 57 -29 90.5t-79 33.5q-56 0 -97 -31l6 -68q11 11 35 24.5t45 13.5q16 0 27 -17.5t11 -43.5q0 -31 -15.5 -67.5 t-32.5 -61.5t-45.5 -62t-39.5 -53v-68z" />
<glyph unicode="&#x2462;" horiz-adv-x="820" d="M44 354q0 152 107 259t259 107t259 -107t107 -259t-107 -259t-259 -107t-259 107t-107 259zM308 152q33 -18 79 -18q65 0 101.5 32t36.5 91q0 83 -64 105q28 12 45 38t17 60q0 53 -33.5 84t-89.5 31q-50 0 -81 -23l3 -66q38 28 70 28q23 0 37 -16t14 -43q0 -32 -19 -47 t-48 -15h-25v-62h30q64 0 64 -71q0 -29 -18.5 -47t-47.5 -18q-25 0 -71 25v-68z" />
<glyph unicode="&#x2463;" horiz-adv-x="820" d="M44 354q0 152 107 259t259 107t259 -107t107 -259t-107 -259t-259 -107t-259 107t-107 259zM275 233h134v-92h76v92h44v60h-44v275h-99l-111 -274v-61zM353 293l56 153v-153h-56z" />
<glyph unicode="&#x2464;" horiz-adv-x="820" d="M44 354q0 152 107 259t259 107t259 -107t107 -259t-107 -259t-259 -107t-259 107t-107 259zM308 153q54 -18 93 -18q62 0 99 39.5t37 110.5q0 61 -32 96.5t-80 35.5q-25 0 -39 -3v89h133v65h-204v-228q40 17 69 17q36 0 54.5 -21.5t18.5 -53.5q0 -36 -18 -58t-50 -22 q-33 0 -77 24z" />
<glyph unicode="&#x2465;" horiz-adv-x="820" d="M44 354q0 152 107 259t259 107t259 -107t107 -259t-107 -259t-259 -107t-259 107t-107 259zM402 134q51 0 82.5 38.5t31.5 103.5t-28 102t-78 37q-26 0 -47 -23q9 122 74 122q20 0 55 -21q2 19 9 67q-42 15 -72 15q-68 0 -104.5 -61.5t-36.5 -175.5q0 -204 114 -204z M402 194q-16 0 -25 20.5t-9 43.5q0 96 34 96q16 0 25 -21.5t9 -57.5q0 -35 -10 -58t-24 -23z" />
<glyph unicode="&#x2466;" horiz-adv-x="820" d="M44 354q0 152 107 259t259 107t259 -107t107 -259t-107 -259t-259 -107t-259 107t-107 259zM323 141h86l113 367v60h-220v-61h140z" />
<glyph unicode="&#x2467;" horiz-adv-x="820" d="M44 354q0 152 107 259t259 107t259 -107t107 -259t-107 -259t-259 -107t-259 107t-107 259zM291 252q0 -53 33 -85.5t85 -32.5q54 0 86.5 32.5t32.5 87.5q0 77 -65 114q28 15 46 44t18 60q0 45 -32.5 74t-83.5 29q-55 0 -87.5 -29.5t-32.5 -79.5q0 -65 64 -103 q-64 -37 -64 -111zM416 394q-49 30 -49 68q0 22 12 37.5t29 15.5t28 -14t11 -37q0 -47 -31 -70zM371 255q0 47 33 76q44 -28 44 -77q0 -27 -10 -43.5t-27 -16.5t-28.5 18t-11.5 43z" />
<glyph unicode="&#x2468;" horiz-adv-x="820" d="M44 354q0 152 107 259t259 107t259 -107t107 -259t-107 -259t-259 -107t-259 107t-107 259zM316 148q36 -14 71 -14q66 0 103.5 62t37.5 175q0 204 -115 204q-51 0 -82 -39t-31 -104q0 -66 28 -103t78 -37q23 0 47 24q-3 -48 -20.5 -84.5t-53.5 -36.5q-22 0 -54 19z M413 354q-33 0 -33 79q0 35 9.5 58.5t23.5 23.5q17 0 26 -22t9 -52q0 -87 -35 -87z" />
<glyph unicode="&#x2469;" horiz-adv-x="820" d="M44 354q0 152 107 259t259 107t259 -107t107 -259t-107 -259t-259 -107t-259 107t-107 259zM504 134q57 0 87 57.5t30 162.5t-30 163t-87 58q-58 0 -88 -58t-30 -163t30 -162.5t88 -57.5zM255 141h79v427h-58l-92 -94l28 -52l43 53v-334zM504 194q-37 0 -37 160 q0 161 37 161t37 -161q0 -160 -37 -160z" />
<glyph unicode="&#x246a;" horiz-adv-x="820" d="M44 354q0 152 107 259t259 107t259 -107t107 -259t-107 -259t-259 -107t-259 107t-107 259zM479 141h79v427h-58l-92 -94l28 -52l43 53v-334zM273 141h79v427h-58l-92 -94l28 -52l43 53v-334z" />
<glyph unicode="&#x246b;" horiz-adv-x="820" d="M44 354q0 152 107 259t259 107t259 -107t107 -259t-107 -259t-259 -107t-259 107t-107 259zM391 141h222v60h-128q4 5 26 35.5t34 49.5q60 95 60 165q0 57 -29 90.5t-79 33.5q-56 0 -97 -31l6 -68q11 11 35 24.5t45 13.5q16 0 27 -17.5t11 -43.5q0 -31 -15.5 -67.5 t-32.5 -61.5t-45.5 -62t-39.5 -53v-68zM253 141h79v427h-58l-92 -94l28 -52l43 53v-334z" />
<glyph unicode="&#x246c;" horiz-adv-x="820" d="M44 354q0 152 107 259t259 107t259 -107t107 -259t-107 -259t-259 -107t-259 107t-107 259zM384 152q33 -18 79 -18q65 0 101.5 32t36.5 91q0 83 -64 105q28 12 45 38t17 60q0 53 -33.5 84t-89.5 31q-50 0 -81 -23l3 -66q38 28 70 28q23 0 37 -16t14 -43q0 -32 -19 -47 t-48 -15h-25v-62h30q64 0 64 -71q0 -29 -18.5 -47t-47.5 -18q-25 0 -71 25v-68zM259 141h79v427h-58l-92 -94l28 -52l43 53v-334z" />
<glyph unicode="&#x246d;" horiz-adv-x="820" d="M44 354q0 152 107 259t259 107t259 -107t107 -259t-107 -259t-259 -107t-259 107t-107 259zM368 233h134v-92h76v92h44v60h-44v275h-99l-111 -274v-61zM250 141h79v427h-58l-92 -94l28 -52l43 53v-334zM446 293l56 153v-153h-56z" />
<glyph unicode="&#x246e;" horiz-adv-x="820" d="M44 354q0 152 107 259t259 107t259 -107t107 -259t-107 -259t-259 -107t-259 107t-107 259zM386 153q54 -18 93 -18q62 0 99 39.5t37 110.5q0 61 -32 96.5t-80 35.5q-25 0 -39 -3v89h133v65h-204v-228q40 17 69 17q36 0 54.5 -21.5t18.5 -53.5q0 -36 -18 -58t-50 -22 q-33 0 -77 24zM251 141h79v427h-58l-92 -94l28 -52l43 53v-334z" />
<glyph unicode="&#x246f;" horiz-adv-x="820" d="M44 354q0 152 107 259t259 107t259 -107t107 -259t-107 -259t-259 -107t-259 107t-107 259zM382 338q0 -204 114 -204q51 0 82.5 38.5t31.5 103.5t-28 102t-78 37q-26 0 -47 -23q9 122 74 122q20 0 55 -21q2 19 9 67q-42 15 -72 15q-68 0 -104.5 -61.5t-36.5 -175.5z M245 141h79v427h-58l-92 -94l28 -52l43 53v-334zM462 258q0 96 34 96q16 0 25 -21.5t9 -57.5q0 -35 -10 -58t-24 -23q-16 0 -25 20.5t-9 43.5z" />
<glyph unicode="&#x2470;" horiz-adv-x="820" d="M44 354q0 152 107 259t259 107t259 -107t107 -259t-107 -259t-259 -107t-259 107t-107 259zM410 141h86l113 367v60h-220v-61h140zM260 141h79v427h-58l-92 -94l28 -52l43 53v-334z" />
<glyph unicode="&#x2471;" horiz-adv-x="820" d="M44 354q0 152 107 259t259 107t259 -107t107 -259t-107 -259t-259 -107t-259 107t-107 259zM375 252q0 -53 33 -85.5t85 -32.5q54 0 86.5 32.5t32.5 87.5q0 77 -65 114q28 15 46 44t18 60q0 45 -32.5 74t-83.5 29q-55 0 -87.5 -29.5t-32.5 -79.5q0 -65 64 -103 q-64 -37 -64 -111zM243 141h79v427h-58l-92 -94l28 -52l43 53v-334zM500 394q-49 30 -49 68q0 22 12 37.5t29 15.5t28 -14t11 -37q0 -47 -31 -70zM455 255q0 47 33 76q44 -28 44 -77q0 -27 -10 -43.5t-27 -16.5t-28.5 18t-11.5 43z" />
<glyph unicode="&#x2472;" horiz-adv-x="820" d="M44 354q0 152 107 259t259 107t259 -107t107 -259t-107 -259t-259 -107t-259 107t-107 259zM404 148q36 -14 71 -14q66 0 103.5 62t37.5 175q0 204 -115 204q-51 0 -82 -39t-31 -104q0 -66 28 -103t78 -37q23 0 47 24q-3 -48 -20.5 -84.5t-53.5 -36.5q-22 0 -54 19z M258 141h79v427h-58l-92 -94l28 -52l43 53v-334zM501 354q-33 0 -33 79q0 35 9.5 58.5t23.5 23.5q17 0 26 -22t9 -52q0 -87 -35 -87z" />
<glyph unicode="&#x2473;" horiz-adv-x="820" d="M44 354q0 152 107 259t259 107t259 -107t107 -259t-107 -259t-259 -107t-259 107t-107 259zM417 354q0 -105 30 -162.5t88 -57.5q57 0 87 57.5t30 162.5t-30 163t-87 58q-58 0 -88 -58t-30 -163zM171 141h222v60h-128q4 5 26 35.5t34 49.5q60 95 60 165q0 57 -29 90.5 t-79 33.5q-56 0 -97 -31l6 -68q11 11 35 24.5t45 13.5q16 0 27 -17.5t11 -43.5q0 -31 -15.5 -67.5t-32.5 -61.5t-45.5 -62t-39.5 -53v-68zM535 194q-37 0 -37 160q0 161 37 161t37 -161q0 -160 -37 -160z" />
<glyph unicode="&#x25ca;" horiz-adv-x="667" d="M334 -26l-260 359l260 360l259 -360zM334 63l197 270l-197 271l-197 -271z" />
<glyph unicode="&#xe103;" horiz-adv-x="558" d="M365 0v495h128v-495h-128zM363 585v121h132v-121h-132zM66 0v400h-99v95h99q2 73 7.5 103.5t21.5 56.5q43 68 150 68q30 0 67 -9l-8 -103q-19 5 -34 5q-51 0 -68 -43q-8 -18 -8 -78h112v-95h-112v-400h-128z" />
<glyph unicode="&#xe104;" horiz-adv-x="562" d="M364 0v720h128v-720h-128zM66 0v400h-99v95h99q2 73 7.5 104t21.5 56q42 68 151 68q31 0 59 -9l-8 -103q-21 5 -32 5q-26 0 -45 -16t-23 -42q-3 -18 -3 -63h105v-95h-105v-400h-128z" />
<glyph unicode="&#xe105;" horiz-adv-x="354" d="M156 267v302l-67 -54l-50 59l130 95h80v-402h-93z" />
<glyph unicode="&#xe107;" horiz-adv-x="354" d="M28 267v73q180 152 180 211q0 24 -16.5 38t-44.5 14q-47 0 -103 -37l-8 81q72 29 133 29q63 0 100.5 -31.5t37.5 -84.5q0 -57 -67 -135q-38 -45 -86 -87l165 1v-72h-291z" />
<glyph unicode="&#xe108;" horiz-adv-x="354" d="M30 275l6 79q52 -23 99 -23q39 0 61 14.5t22 39.5q0 53 -99 53q-19 0 -35 -1v74q15 -1 31 -1q101 0 101 52q0 43 -70 43q-50 0 -98 -23l-6 75q64 19 117 19q73 0 113 -28t40 -79q0 -64 -64 -92q68 -26 68 -99q0 -55 -46.5 -86.5t-127.5 -31.5q-57 0 -112 15z" />
<glyph unicode="&#xec73;" horiz-adv-x="247" d="M0 307v53h247v-53h-247zM21 0v51q123 102 123 143q0 15 -11 24t-29 9q-32 0 -72 -25l-6 58q49 20 93 20t70 -21.5t26 -58.5q0 -62 -103 -149l111 1v-52h-202zM108 400v203l-45 -35l-36 42l91 66h57v-276h-67z" />
<glyph unicode="&#xec74;" horiz-adv-x="247" d="M0 307v53h247v-53h-247zM21 6l4 57q36 -16 69 -16q55 0 55 35q0 34 -65 34h-26v53q11 -1 23 -1q67 0 67 33q0 28 -46 28q-32 0 -69 -16l-4 54q43 13 82 13q50 0 78 -19t28 -54q0 -43 -42 -62q44 -18 44 -68q0 -37 -32 -59t-88 -22q-37 0 -78 10zM108 400v203l-45 -35 l-36 42l91 66h57v-276h-67z" />
<glyph unicode="&#xec75;" horiz-adv-x="247" d="M0 307v53h247v-53h-247zM21 6l4 57q36 -16 69 -16q55 0 55 35q0 34 -65 34h-26v53q11 -1 23 -1q67 0 67 33q0 28 -46 28q-32 0 -69 -16l-4 54q43 13 82 13q50 0 78 -19t28 -54q0 -43 -42 -62q44 -18 44 -68q0 -37 -32 -59t-88 -22q-37 0 -78 10zM21 400v52 q123 102 123 143q0 15 -11 24t-29 9q-32 0 -72 -26l-6 58q49 21 93 21t70 -22t26 -59q0 -62 -103 -148h111v-52h-202z" />
<glyph unicode="&#xec76;" horiz-adv-x="247" d="M0 307v53h247v-53h-247zM132 0v54h-122v51l108 171h81v-172h37v-50h-37v-54h-67zM75 104h58l1 100zM108 400v203l-45 -35l-36 42l91 66h57v-276h-67z" />
<glyph unicode="&#xec77;" horiz-adv-x="247" d="M0 307v53h247v-53h-247zM132 0v54h-122v51l108 171h81v-172h37v-50h-37v-54h-67zM75 104h58l1 100zM21 407l4 56q36 -16 69 -16q55 0 55 35q0 34 -65 34h-26v53q11 -1 23 -1q67 0 67 34q0 28 -46 28q-35 0 -69 -17l-4 55q48 13 82 13q50 0 78 -19.5t28 -54.5 q0 -42 -42 -62q44 -18 44 -68q0 -37 -32 -59t-88 -22q-40 0 -78 11z" />
<glyph unicode="&#xec7c;" horiz-adv-x="247" d="M108 400v203l-45 -35l-36 42l91 66h57v-276h-67zM0 307v53h247v-53h-247zM19 77q0 45 43 68q-38 22 -38 60q0 34 27 54.5t72 20.5q44 0 70.5 -19t26.5 -50q0 -39 -38 -62q46 -23 46 -70q0 -38 -28 -60.5t-76 -22.5t-76.5 22t-28.5 59zM128 170q28 14 28 35q0 12 -9.5 20 t-23.5 8t-24 -8t-10 -19q0 -12 8 -19.5t31 -16.5zM86 78q0 -15 11 -24.5t28 -9.5q16 0 25.5 9t9.5 23q0 15 -9.5 24.5t-32.5 16.5q-32 -14 -32 -39z" />
<glyph unicode="&#xec7d;" horiz-adv-x="247" d="M21 407l4 56q36 -16 69 -16q55 0 55 35q0 34 -65 34h-26v53q11 -1 23 -1q67 0 67 34q0 28 -46 28q-35 0 -69 -17l-4 55q48 13 82 13q50 0 78 -19.5t28 -54.5q0 -42 -42 -62q44 -18 44 -68q0 -37 -32 -59t-88 -22q-40 0 -78 11zM0 307v53h247v-53h-247zM19 77q0 45 43 68 q-38 22 -38 60q0 34 27 54.5t72 20.5q44 0 70.5 -19t26.5 -50q0 -39 -38 -62q46 -23 46 -70q0 -38 -28 -60.5t-76 -22.5t-76.5 22t-28.5 59zM128 170q28 14 28 35q0 12 -9.5 20t-23.5 8t-24 -8t-10 -19q0 -12 8 -19.5t31 -16.5zM86 78q0 -15 11 -24.5t28 -9.5q16 0 25.5 9 t9.5 23q0 15 -9.5 24.5t-32.5 16.5q-32 -14 -32 -39z" />
<glyph unicode="&#xec7e;" horiz-adv-x="247" d="M45 403l-12 2l2 60q33 -16 65 -16q26 0 40.5 10.5t14.5 29.5t-16.5 30.5t-44.5 11.5q-24 0 -56 -9l2 153h176v-51h-112l-1 -43q8 1 18 1q47 0 76 -25t29 -66q0 -45 -32 -70t-90 -25q-17 0 -59 7zM0 307v53h247v-53h-247zM19 77q0 45 43 68q-38 22 -38 60q0 34 27 54.5 t72 20.5q44 0 70.5 -19t26.5 -50q0 -39 -38 -62q46 -23 46 -70q0 -38 -28 -60.5t-76 -22.5t-76.5 22t-28.5 59zM128 170q28 14 28 35q0 12 -9.5 20t-23.5 8t-24 -8t-10 -19q0 -12 8 -19.5t31 -16.5zM86 78q0 -15 11 -24.5t28 -9.5q16 0 25.5 9t9.5 23q0 15 -9.5 24.5 t-32.5 16.5q-32 -14 -32 -39z" />
<glyph unicode="&#xec7f;" horiz-adv-x="247" d="M46 400l106 224h-126v51h196v-47l-102 -228h-74zM0 307v53h247v-53h-247zM19 77q0 45 43 68q-38 22 -38 60q0 34 27 54.5t72 20.5q44 0 70.5 -19t26.5 -50q0 -39 -38 -62q46 -23 46 -70q0 -38 -28 -60.5t-76 -22.5t-76.5 22t-28.5 59zM128 170q28 14 28 35q0 12 -9.5 20 t-23.5 8t-24 -8t-10 -19q0 -12 8 -19.5t31 -16.5zM86 78q0 -15 11 -24.5t28 -9.5q16 0 25.5 9t9.5 23q0 15 -9.5 24.5t-32.5 16.5q-32 -14 -32 -39z" />
<glyph unicode="&#xf655;" horiz-adv-x="354" d="M177 -6q-74 0 -112.5 52t-38.5 151q0 212 151 212q83 0 122 -66q30 -50 30 -148t-39 -149.5t-113 -51.5zM178 62q57 0 57 134q0 145 -58 145q-56 0 -56 -144q0 -135 57 -135z" />
<glyph unicode="&#xf656;" horiz-adv-x="354" d="M156 0v302l-67 -53l-50 59l130 95h80v-403h-93z" />
<glyph unicode="&#xf657;" horiz-adv-x="354" d="M28 0v73q180 152 180 211q0 24 -16.5 38t-44.5 14q-47 0 -103 -37l-8 81q72 29 133 29q63 0 100.5 -31.5t37.5 -84.5q0 -57 -67 -135q-38 -45 -86 -87l165 1v-72h-291z" />
<glyph unicode="&#xf658;" horiz-adv-x="354" d="M30 9l6 78q51 -22 99 -22q39 0 61 14.5t22 39.5q0 53 -99 53q-19 0 -35 -1v74q16 -1 31 -1q101 0 101 51q0 43 -70 43q-50 0 -98 -23l-6 75q64 19 117 19q73 0 113 -28t40 -78q0 -64 -64 -92q68 -26 68 -99q0 -55 -46.5 -86.5t-127.5 -31.5q-57 0 -112 15z" />
<glyph unicode="&#xf659;" horiz-adv-x="354" d="M13 79v73l158 251h115v-254h54v-70h-54v-79h-93v79h-180zM103 149h92l1 158z" />
<glyph unicode="&#xf65a;" horiz-adv-x="354" d="M47 7l2 83q47 -22 93 -22q37 0 59.5 16.5t22.5 44.5q0 29 -24.5 46.5t-65.5 17.5q-36 0 -81 -13l4 221h253v-71h-164l-2 -68l29 1q67 2 109 -35t42 -96q0 -65 -46.5 -101.5t-130.5 -36.5q-34 0 -100 13z" />
<glyph unicode="&#xf65b;" horiz-adv-x="354" d="M183 -6q-152 0 -152 192q0 223 177 223q43 0 98 -15l-12 -73q-39 17 -73 17q-87 0 -97 -99q23 17 38 22.5t39 5.5q57 0 92 -38t35 -99q0 -63 -39 -99.5t-106 -36.5zM128 133q0 -32 14.5 -51.5t38.5 -19.5t38 18t14 48q0 32 -14.5 50.5t-39.5 18.5q-23 0 -37 -17t-14 -47z " />
<glyph unicode="&#xf65c;" horiz-adv-x="354" d="M66 0l156 331h-186v70h283v-66l-149 -335h-104z" />
<glyph unicode="&#xf65d;" horiz-adv-x="354" d="M26 112q0 35 18 62t49 37q-33 18 -46.5 38.5t-13.5 50.5q0 49 39.5 79t104.5 30q64 0 102 -27t38 -73q0 -60 -60 -91q38 -18 55 -42t17 -61q0 -57 -40.5 -89t-111.5 -32q-69 0 -110 32t-41 86zM185 246q42 22 42 54q0 19 -14 31.5t-36 12.5q-23 0 -38 -12t-15 -30 q0 -19 13 -31t48 -25zM121 113q0 -22 16.5 -37t42.5 -15q25 0 39.5 13.5t14.5 36.5q0 22 -14.5 36t-49.5 26l-8 -3q-41 -15 -41 -57z" />
<glyph unicode="&#xf65e;" horiz-adv-x="354" d="M48 8l11 74q42 -17 73 -17q85 0 98 99q-31 -28 -76 -28q-58 0 -93 37.5t-35 98.5q0 65 39 101t109 36q149 0 149 -188q0 -227 -175 -227q-57 0 -100 14zM175 206q23 0 36.5 17t13.5 45q0 33 -14.5 53t-38.5 20q-22 0 -36.5 -19t-14.5 -49t15 -48.5t39 -18.5z" />
<glyph unicode="&#xf65f;" horiz-adv-x="185" d="M16 -64l40 151h97l-57 -151h-80z" />
<glyph unicode="&#xf660;" horiz-adv-x="185" d="M45 0v87h95v-87h-95z" />
<glyph unicode="&#xf661;" horiz-adv-x="354" d="M177 261q-74 0 -112.5 52t-38.5 151q0 212 151 212q83 0 122 -66q30 -50 30 -148t-39 -149.5t-113 -51.5zM178 329q57 0 57 134q0 145 -58 145q-56 0 -56 -144q0 -135 57 -135z" />
<glyph unicode="&#xf662;" horiz-adv-x="354" d="M156 267v302l-67 -54l-50 59l130 95h80v-402h-93z" />
<glyph unicode="&#xf663;" horiz-adv-x="354" d="M28 267v73q180 152 180 211q0 24 -16.5 38t-44.5 14q-47 0 -103 -37l-8 81q72 29 133 29q63 0 100.5 -31.5t37.5 -84.5q0 -57 -67 -135q-38 -45 -86 -87l165 1v-72h-291z" />
<glyph unicode="&#xf664;" horiz-adv-x="354" d="M30 275l6 79q52 -23 99 -23q39 0 61 14.5t22 39.5q0 53 -99 53q-19 0 -35 -1v74q15 -1 31 -1q101 0 101 52q0 43 -70 43q-50 0 -98 -23l-6 75q64 19 117 19q73 0 113 -28t40 -79q0 -64 -64 -92q68 -26 68 -99q0 -55 -46.5 -86.5t-127.5 -31.5q-57 0 -112 15z" />
<glyph unicode="&#xf665;" horiz-adv-x="354" d="M193 267v79h-180v73l158 250h115v-253h54v-70h-54v-79h-93zM103 416h92l1 158z" />
<glyph unicode="&#xf666;" horiz-adv-x="354" d="M47 273l2 83q47 -22 93 -22q37 0 59.5 16.5t22.5 44.5q0 29 -24.5 46.5t-65.5 17.5q-36 0 -81 -13l4 221h253v-71h-164l-2 -68l29 1q67 2 109 -35t42 -96q0 -65 -46.5 -101.5t-130.5 -36.5q-34 0 -100 13z" />
<glyph unicode="&#xf667;" horiz-adv-x="354" d="M183 261q-152 0 -152 192q0 223 177 223q43 0 98 -15l-12 -73q-39 17 -73 17q-87 0 -97 -99q23 17 38 22.5t39 5.5q57 0 92 -38t35 -99q0 -63 -39 -99.5t-106 -36.5zM128 400q0 -32 14.5 -51.5t38.5 -19.5t38 18t14 48q0 32 -14.5 50.5t-39.5 18.5q-23 0 -37 -17t-14 -47 z" />
<glyph unicode="&#xf668;" horiz-adv-x="354" d="M66 267l156 330h-186v70h283v-66l-149 -334h-104z" />
<glyph unicode="&#xf669;" horiz-adv-x="354" d="M177 261q-69 0 -110 32t-41 86q0 35 18 62t49 37q-33 18 -46.5 38.5t-13.5 50.5q0 49 39.5 79t104.5 30q64 0 102 -27t38 -73q0 -60 -60 -91q38 -18 55 -42t17 -61q0 -57 -40.5 -89t-111.5 -32zM185 513q42 23 42 54q0 19 -14 31.5t-36 12.5q-23 0 -38 -12t-15 -30 q0 -19 13 -31t48 -25zM180 328q25 0 39.5 13.5t14.5 36.5q0 22 -14.5 36t-49.5 26l-8 -3q-41 -15 -41 -57q0 -22 16.5 -37t42.5 -15z" />
<glyph unicode="&#xf66a;" horiz-adv-x="354" d="M48 275l11 74q42 -17 73 -17q85 0 98 99q-31 -28 -76 -28q-58 0 -93 37.5t-35 98.5q0 65 39 101t109 36q149 0 149 -188q0 -227 -175 -227q-57 0 -100 14zM175 473q23 0 36.5 17t13.5 45q0 33 -14.5 53t-38.5 20q-22 0 -36.5 -19t-14.5 -49t15 -48.5t39 -18.5z" />
<glyph unicode="&#xf66b;" horiz-adv-x="185" d="M16 203l40 151h97l-57 -151h-80z" />
<glyph unicode="&#xf66c;" horiz-adv-x="185" d="M45 267v87h95v-87h-95z" />
<glyph unicode="&#xf6e1;" horiz-adv-x="131" d="M11 -43l28 105h69l-40 -105h-57z" />
<glyph unicode="&#xf6e2;" horiz-adv-x="131" d="M11 357l28 105h69l-40 -105h-57z" />
<glyph unicode="&#xf6e5;" horiz-adv-x="247" d="M0 307v53h247v-53h-247z" />
<glyph unicode="&#xf6e6;" horiz-adv-x="247" d="M0 307v53h247v-53h-247z" />
<glyph unicode="&#xf6e7;" horiz-adv-x="131" d="M32 0v62h68v-62h-68z" />
<glyph unicode="&#xf6e8;" horiz-adv-x="131" d="M32 400v62h68v-62h-68z" />
<glyph unicode="&#xf8ff;" horiz-adv-x="800" d="M35 101v635h629q42 0 71.5 -29.5t29.5 -71.5v-635h-629q-42 0 -71.5 29.5t-29.5 71.5zM301 378q34 0 52 19t18 53v173q0 72 -70 72t-70 -72v-173q0 -34 18 -53t52 -19zM398 383h54v236q0 23 16 23t16 -23v-236h54v242q0 68 -58 68q-22 0 -27 -10v7h-55v-307zM578 450 q0 -34 18 -53t52 -19t52 19t18 53v34h-54v-31q0 -23 -16 -23t-16 23v132h78v52h-79v53h-54v-53h-18v-52h19v-135zM90 383h54v103h59v60h-59v84h67v60h-121v-307zM301 431q-16 0 -16 22v166q0 23 16 23t16 -23v-166q0 -22 -16 -22zM522 114q0 -34 18 -53t52 -19t52 19t18 53 v12h-54v-9q0 -22 -16 -22t-16 22v40h86v128q0 72 -70 72t-70 -72v-171zM86 123q0 -81 73 -81t73 89q0 25 -12 45.5t-54 49.5q-25 17 -25 40q0 38 19 38q18 0 18 -32v-25h54v29q0 81 -73 81t-73 -89q0 -17 3 -29t18.5 -30.5t44.5 -37.5q25 -17 25 -38q0 -38 -19 -38 q-18 0 -18 32v10h-54v-14zM361 114q0 -34 18 -53t52 -19t52 19t18 53v34h-54v-31q0 -22 -16 -22t-16 22v129h78v52h-79v55h-54v-55h-18v-52h19v-132zM262 292h54v61h-54v-61zM576 203v78q0 23 16 23t16 -23v-78h-32zM262 46h54v215h-54v-215zM703 46h6v21l9 -21h4l9 21v-21 h6v31h-8l-9 -21l-9 21h-8v-31zM672 71h10v-25h6v25h10v6h-26v-6z" />
</font>
</defs>
</svg>
